<svg width="264" height="166" viewBox="0 0 264 166" fill="none" xmlns="http://www.w3.org/2000/svg">
<path fill-rule="evenodd" clip-rule="evenodd" d="M181 166C226.84 166 264 128.84 264 83C264 37.1604 226.84 0 181 0C136.165 0 99.6324 35.55 98.0532 80H14.5732C13.5436 77.087 10.7655 75 7.5 75C3.35785 75 0 78.3579 0 82.5C0 86.6421 3.35785 90 7.5 90C10.7655 90 13.5436 87.913 14.5732 85H98.0236C99.0858 129.916 135.829 166 181 166ZM147.515 38.5147C145.264 40.7652 144 43.8174 144 47V119C144 122.183 145.264 125.235 147.515 127.485C149.765 129.736 152.817 131 156 131H204C207.183 131 210.235 129.736 212.485 127.485C214.736 125.235 216 122.183 216 119V47C216 43.8174 214.736 40.7652 212.485 38.5147C210.235 36.2643 207.183 35 204 35H156C152.817 35 149.765 36.2643 147.515 38.5147ZM156.879 47.8787C156.316 48.4413 156 49.2044 156 50V62C156 62.7956 156.316 63.5587 156.879 64.1213C157.441 64.6839 158.204 65 159 65H201C201.796 65 202.559 64.6839 203.121 64.1213C203.684 63.5587 204 62.7956 204 62V50C204 49.2044 203.684 48.4413 203.121 47.8787C202.559 47.3161 201.796 47 201 47H159C158.204 47 157.441 47.3161 156.879 47.8787ZM156.879 71.8787C156.316 72.4413 156 73.2043 156 74V80C156 80.7957 156.316 81.5587 156.879 82.1213C157.441 82.6839 158.204 83 159 83H165C165.796 83 166.559 82.6839 167.121 82.1213C167.684 81.5587 168 80.7957 168 80V74C168 73.2043 167.684 72.4413 167.121 71.8787C166.559 71.3161 165.796 71 165 71H159C158.204 71 157.441 71.3161 156.879 71.8787ZM156.879 89.8787C157.441 89.3161 158.204 89 159 89H165C165.796 89 166.559 89.3161 167.121 89.8787C167.684 90.4413 168 91.2043 168 92V98C168 98.7957 167.684 99.5587 167.121 100.121C166.559 100.684 165.796 101 165 101H159C158.204 101 157.441 100.684 156.879 100.121C156.316 99.5587 156 98.7957 156 98V92C156 91.2043 156.316 90.4413 156.879 89.8787ZM156.879 107.879C156.316 108.441 156 109.204 156 110V116C156 116.796 156.316 117.559 156.879 118.121C157.441 118.684 158.204 119 159 119H165C165.796 119 166.559 118.684 167.121 118.121C167.684 117.559 168 116.796 168 116V110C168 109.204 167.684 108.441 167.121 107.879C166.559 107.316 165.796 107 165 107H159C158.204 107 157.441 107.316 156.879 107.879ZM174.879 71.8787C175.441 71.3161 176.204 71 177 71H183C183.796 71 184.559 71.3161 185.121 71.8787C185.684 72.4413 186 73.2043 186 74V80C186 80.7957 185.684 81.5587 185.121 82.1213C184.559 82.6839 183.796 83 183 83H177C176.204 83 175.441 82.6839 174.879 82.1213C174.316 81.5587 174 80.7957 174 80V74C174 73.2043 174.316 72.4413 174.879 71.8787ZM174.879 89.8787C174.316 90.4413 174 91.2043 174 92V98C174 98.7957 174.316 99.5587 174.879 100.121C175.441 100.684 176.204 101 177 101H183C183.796 101 184.559 100.684 185.121 100.121C185.684 99.5587 186 98.7957 186 98V92C186 91.2043 185.684 90.4413 185.121 89.8787C184.559 89.3161 183.796 89 183 89H177C176.204 89 175.441 89.3161 174.879 89.8787ZM174.879 107.879C175.441 107.316 176.204 107 177 107H183C183.796 107 184.559 107.316 185.121 107.879C185.684 108.441 186 109.204 186 110V116C186 116.796 185.684 117.559 185.121 118.121C184.559 118.684 183.796 119 183 119H177C176.204 119 175.441 118.684 174.879 118.121C174.316 117.559 174 116.796 174 116V110C174 109.204 174.316 108.441 174.879 107.879ZM192.879 71.8787C192.316 72.4413 192 73.2043 192 74V80C192 80.7957 192.316 81.5587 192.879 82.1213C193.441 82.6839 194.204 83 195 83H201C201.796 83 202.559 82.6839 203.121 82.1213C203.684 81.5587 204 80.7957 204 80V74C204 73.2043 203.684 72.4413 203.121 71.8787C202.559 71.3161 201.796 71 201 71H195C194.204 71 193.441 71.3161 192.879 71.8787ZM192.879 89.8787C193.441 89.3161 194.204 89 195 89H201C201.796 89 202.559 89.3161 203.121 89.8787C203.684 90.4413 204 91.2043 204 92V116C204 116.796 203.684 117.559 203.121 118.121C202.559 118.684 201.796 119 201 119H195C194.204 119 193.441 118.684 192.879 118.121C192.316 117.559 192 116.796 192 116V92C192 91.2043 192.316 90.4413 192.879 89.8787Z" fill="#FC7F0C"/>
</svg>
