<svg width="264" height="166" viewBox="0 0 264 166" fill="none" xmlns="http://www.w3.org/2000/svg">
<path fill-rule="evenodd" clip-rule="evenodd" d="M181 166C226.84 166 264 128.84 264 83C264 37.1604 226.84 0 181 0C136.165 0 99.6324 35.55 98.0532 80H14.5732C13.5436 77.087 10.7655 75 7.5 75C3.35785 75 0 78.3579 0 82.5C0 86.6421 3.35785 90 7.5 90C10.7655 90 13.5436 87.913 14.5732 85H98.0236C99.0858 129.916 135.829 166 181 166ZM155.999 87.2375L134.043 109.194C131.324 111.913 131.324 116.338 134.043 119.075L143.924 128.956C146.643 131.694 151.068 131.694 153.806 128.956L175.762 107C180.093 102.669 180.918 96.2 178.368 90.9875L198.356 71H209.999L227.999 47L215.999 35L191.999 53V64.6438L172.012 84.6313C166.799 82.0625 160.331 82.9062 155.999 87.2375ZM151.762 83C155.512 79.25 160.499 77.1875 165.806 77.1875C167.343 77.1875 168.918 77.375 170.437 77.7312L185.831 62.3375C185.962 55.3063 183.449 48.2562 178.106 42.9125C171.168 35.975 161.381 33.6125 152.493 35.8063C150.787 36.2375 150.187 38.3563 151.424 39.5938L165.374 53.5438L163.256 66.275L150.524 68.3938L136.574 54.4437C135.337 53.2062 133.218 53.7875 132.806 55.475C130.593 64.3625 132.956 74.15 139.912 81.1062C142.349 83.5437 145.162 85.3438 148.124 86.6375L151.762 83ZM195.918 81.9313L185.287 92.5625C186.206 96.5188 185.774 100.588 184.349 104.319L207.524 127.494C212.212 132.181 219.806 132.181 224.493 127.494C229.181 122.806 229.181 115.212 224.493 110.525L195.918 81.9313ZM220.499 119C220.499 121.475 218.474 123.5 215.999 123.5C213.506 123.5 211.499 121.475 211.499 119C211.499 116.506 213.506 114.5 215.999 114.5C218.493 114.5 220.499 116.506 220.499 119Z" fill="#FC7F0C"/>
</svg>
