<svg width="264" height="166" viewBox="0 0 264 166" fill="none" xmlns="http://www.w3.org/2000/svg">
<path fill-rule="evenodd" clip-rule="evenodd" d="M264 83C264 128.84 226.84 166 181 166C135.829 166 99.0858 129.916 98.0236 85H14.5732C13.5436 87.913 10.7655 90 7.5 90C3.35785 90 0 86.6421 0 82.5C0 78.3579 3.35785 75 7.5 75C10.7655 75 13.5436 77.087 14.5732 80H98.0532C99.6324 35.55 136.165 0 181 0C226.84 0 264 37.1604 264 83ZM218.788 37.8118C220.589 39.6121 221.6 42.0539 221.6 44.6V121.4C221.6 123.946 220.589 126.388 218.788 128.188C216.988 129.989 214.546 131 212 131H148C145.454 131 143.012 129.989 141.212 128.188C139.411 126.388 138.4 123.946 138.4 121.4V56.0752L159.475 35H212C214.546 35 216.988 36.0114 218.788 37.8118ZM202.4 60.6H183.2V67H202.4V60.6ZM202.4 79.8H157.6V86.2H202.4V79.8ZM192.96 109.611C192.256 107.48 190.234 105.502 187.648 104.811H187.654C186.621 104.541 185.543 104.484 184.487 104.643C183.431 104.803 182.418 105.176 181.51 105.739L181.683 105.867C184.045 107.058 185.805 108.146 187.021 109.15C187.668 109.664 188.233 110.273 188.698 110.955C189.312 111.854 189.565 112.95 189.408 114.027C189.308 114.603 189.082 115.15 188.747 115.629C188.412 116.108 187.975 116.507 187.469 116.798C186.817 117.168 186.1 117.407 185.357 117.502C184.047 117.656 182.721 117.602 181.427 117.342C178.931 116.894 175.61 115.704 173.574 113.438C172.467 112.21 171.61 110.501 171.782 108.427L171.789 108.338C171.47 108.293 171.15 108.264 170.829 108.248C168.678 108.133 166.573 108.658 164.435 109.554C162.86 110.239 161.322 111.005 159.827 111.851C159.249 112.167 158.669 112.478 158.086 112.786C156.154 113.797 153.696 115 151.2 115V108.6C151.91 108.6 153.043 108.203 155.11 107.115C155.552 106.885 156.032 106.629 156.531 106.347L156.617 106.301C158.199 105.447 160.054 104.445 161.971 103.646C164.627 102.539 167.718 101.669 171.174 101.854C172.486 101.925 173.811 102.149 175.155 102.539C179.622 98.4368 184.787 97.4128 189.312 98.6288C193.875 99.8576 197.613 103.32 199.04 107.589L192.96 109.611Z" fill="#FC7F0C"/>
</svg>
