<svg width="264" height="166" viewBox="0 0 264 166" fill="none" xmlns="http://www.w3.org/2000/svg">
<path fill-rule="evenodd" clip-rule="evenodd" d="M181 166C226.84 166 264 128.84 264 83C264 37.1604 226.84 0 181 0C136.165 0 99.6324 35.5499 98.0532 80H14.5732C13.5436 77.087 10.7655 75 7.5 75C3.35785 75 0 78.3579 0 82.5C0 86.6421 3.35785 90 7.5 90C10.7655 90 13.5436 87.913 14.5732 85H98.0236C99.0858 129.916 135.829 166 181 166ZM128 83C128 54.3275 151.328 31 180 31C208.672 31 232 54.3275 232 83C232 111.672 208.672 135 180 135C151.328 135 128 111.672 128 83ZM198.073 66.62L192.047 61.355L173.645 81.88L179.67 87.645L198.073 66.62ZM146.342 87L163.982 104.657L169.643 99L152 81.3425L146.342 87ZM162.388 87L180.232 104.855L213.645 66.62L207.62 61.355L179.838 93.1475L168.047 81.345L162.388 87Z" fill="#FC7F0C"/>
</svg>
