<svg width="264" height="166" viewBox="0 0 264 166" fill="none" xmlns="http://www.w3.org/2000/svg">
<path fill-rule="evenodd" clip-rule="evenodd" d="M181 166C226.84 166 264 128.84 264 83C264 37.1603 226.84 0 181 0C136.165 0 99.6324 35.55 98.0532 80H14.5732C13.5436 77.087 10.7655 75 7.5 75C3.35785 75 0 78.3578 0 82.5C0 86.6422 3.35785 90 7.5 90C10.7655 90 13.5436 87.913 14.5732 85H98.0236C99.0858 129.916 135.829 166 181 166ZM200 67H210C211.24 67 212.44 67.6 213.2 68.6L222.4 80.88C223.44 82.28 224 83.96 224 85.68V99C224 101.2 222.2 103 220 103H216C216 109.64 210.64 115 204 115C197.36 115 192 109.64 192 103H168C168 109.64 162.64 115 156 115C149.36 115 144 109.64 144 103C139.6 103 136 99.4 136 95V59C136 54.6 139.6 51 144 51H192C196.4 51 200 54.6 200 59V67ZM152 103C152 105.2 153.8 107 156 107C158.2 107 160 105.2 160 103C160 100.8 158.2 99 156 99C153.8 99 152 100.8 152 103ZM217.84 83L210 73H200V83H217.84ZM200 103C200 105.2 201.8 107 204 107C206.2 107 208 105.2 208 103C208 100.8 206.2 99 204 99C201.8 99 200 100.8 200 103Z" fill="#FC7F0C"/>
</svg>
