<svg width="512" height="512" viewBox="0 0 512 512" fill="none" xmlns="http://www.w3.org/2000/svg">
<rect width="512" height="512" fill="#F1F1F1"/>
<path d="M227.014 160.516V160.533L231.25 149.406H237.754L229.141 169.709C228.215 171.76 227.172 173.207 226.012 174.051C224.863 174.883 223.516 175.322 221.969 175.369H220.721L219.771 175.334L219.666 170.553C219.807 170.6 220.217 170.623 220.896 170.623C221.834 170.623 222.537 170.465 223.006 170.148C223.486 169.82 223.873 169.193 224.166 168.268L224.465 167.424L215.219 149.406H221.775L227.014 160.516ZM261.361 175H255.191V154.17H245.998V175H239.828V149.406H261.361V175ZM285.918 166.334C285.836 168.115 285.355 169.691 284.477 171.062C283.598 172.422 282.361 173.477 280.768 174.227C279.186 174.977 277.375 175.352 275.336 175.352C271.973 175.352 269.324 174.256 267.391 172.064C265.457 169.873 264.49 166.779 264.49 162.783V161.518C264.49 159.01 264.924 156.818 265.791 154.943C266.67 153.057 267.93 151.604 269.57 150.584C271.211 149.553 273.109 149.037 275.266 149.037C278.371 149.037 280.867 149.857 282.754 151.498C284.641 153.127 285.713 155.377 285.971 158.248H279.818C279.771 156.689 279.379 155.57 278.641 154.891C277.902 154.211 276.777 153.871 275.266 153.871C273.73 153.871 272.605 154.445 271.891 155.594C271.176 156.742 270.801 158.576 270.766 161.096V162.906C270.766 165.637 271.105 167.588 271.785 168.76C272.477 169.932 273.66 170.518 275.336 170.518C276.754 170.518 277.838 170.184 278.588 169.516C279.338 168.848 279.736 167.787 279.783 166.334H285.918ZM294.443 166.896H289.645L288.889 149.406H295.199L294.443 166.896ZM288.713 172.346C288.713 171.479 289.023 170.77 289.645 170.219C290.277 169.656 291.062 169.375 292 169.375C292.938 169.375 293.717 169.656 294.338 170.219C294.971 170.77 295.287 171.479 295.287 172.346C295.287 173.213 294.971 173.928 294.338 174.49C293.717 175.041 292.938 175.316 292 175.316C291.062 175.316 290.277 175.041 289.645 174.49C289.023 173.928 288.713 173.213 288.713 172.346ZM167.371 299H161.236V288.312H152.148V299H145.979V273.406H152.148V283.566H161.236V273.406H167.371V299ZM187.164 288.154H177.461V294.254H188.922V299H171.291V273.406H188.957V278.17H177.461V283.566H187.164V288.154ZM210.332 284.516V284.533L214.568 273.406H221.072L212.459 293.709C211.533 295.76 210.49 297.207 209.33 298.051C208.182 298.883 206.834 299.322 205.287 299.369H204.039L203.09 299.334L202.984 294.553C203.125 294.6 203.535 294.623 204.215 294.623C205.152 294.623 205.855 294.465 206.324 294.148C206.805 293.82 207.191 293.193 207.484 292.268L207.783 291.424L198.537 273.406H205.094L210.332 284.516ZM245.682 305.293H240.145V299H226.205V305.275H220.492L220.053 294.254H221.863C222.812 293.621 223.574 292.537 224.148 291.002C224.734 289.455 225.15 287.24 225.396 284.357L226.188 273.406H243.607V294.254H246.332L245.682 305.293ZM228.842 294.254H237.455V278.17H232.006L231.531 284.568C231.18 288.717 230.283 291.945 228.842 294.254ZM263.277 294.219H254.822L253.346 299H246.754L256.141 273.406H261.941L271.398 299H264.771L263.277 294.219ZM256.299 289.455H261.801L259.041 280.578L256.299 289.455ZM295.129 273.406V299H288.959V278.17H283.211L282.789 286.766C282.613 289.73 282.203 292.098 281.559 293.867C280.914 295.637 279.994 296.932 278.799 297.752C277.615 298.561 275.998 298.977 273.947 299H272.295V294.254L273.156 294.166C274.387 293.99 275.277 293.24 275.828 291.916C276.379 290.58 276.736 288.336 276.9 285.184L277.34 273.406H295.129ZM320.652 286.73C320.652 289.227 320.189 291.436 319.264 293.357C318.338 295.279 317.02 296.762 315.309 297.805C313.609 298.836 311.67 299.352 309.49 299.352C307.311 299.352 305.377 298.854 303.689 297.857C302.002 296.85 300.684 295.414 299.734 293.551C298.797 291.688 298.305 289.549 298.258 287.135V285.693C298.258 283.186 298.715 280.977 299.629 279.066C300.555 277.145 301.873 275.662 303.584 274.619C305.307 273.576 307.264 273.055 309.455 273.055C311.623 273.055 313.557 273.57 315.256 274.602C316.955 275.633 318.273 277.104 319.211 279.014C320.16 280.912 320.641 283.092 320.652 285.553V286.73ZM314.377 285.658C314.377 283.115 313.949 281.188 313.094 279.875C312.25 278.551 311.037 277.889 309.455 277.889C306.361 277.889 304.727 280.209 304.551 284.85L304.533 286.73C304.533 289.238 304.949 291.166 305.781 292.514C306.613 293.861 307.85 294.535 309.49 294.535C311.049 294.535 312.25 293.873 313.094 292.549C313.938 291.225 314.365 289.32 314.377 286.836V285.658ZM344.541 290.334C344.459 292.115 343.979 293.691 343.1 295.062C342.221 296.422 340.984 297.477 339.391 298.227C337.809 298.977 335.998 299.352 333.959 299.352C330.596 299.352 327.947 298.256 326.014 296.064C324.08 293.873 323.113 290.779 323.113 286.783V285.518C323.113 283.01 323.547 280.818 324.414 278.943C325.293 277.057 326.553 275.604 328.193 274.584C329.834 273.553 331.732 273.037 333.889 273.037C336.994 273.037 339.49 273.857 341.377 275.498C343.264 277.127 344.336 279.377 344.594 282.248H338.441C338.395 280.689 338.002 279.57 337.264 278.891C336.525 278.211 335.4 277.871 333.889 277.871C332.354 277.871 331.229 278.445 330.514 279.594C329.799 280.742 329.424 282.576 329.389 285.096V286.906C329.389 289.637 329.729 291.588 330.408 292.76C331.1 293.932 332.283 294.518 333.959 294.518C335.377 294.518 336.461 294.184 337.211 293.516C337.961 292.848 338.359 291.787 338.406 290.334H344.541ZM353.664 282.213H356.846C358.873 282.213 360.666 282.559 362.225 283.25C363.783 283.941 364.979 284.92 365.811 286.186C366.654 287.439 367.076 288.881 367.076 290.51C367.076 293.029 366.139 295.074 364.264 296.645C362.4 298.215 359.893 299 356.74 299H347.477V273.406H353.664V282.213ZM353.664 286.959V294.254H356.828C358.082 294.254 359.072 293.902 359.799 293.199C360.537 292.496 360.906 291.588 360.906 290.475C360.906 289.42 360.543 288.57 359.816 287.926C359.09 287.281 358.082 286.959 356.793 286.959H353.664ZM112.598 342.508C112.598 341.699 112.281 341.049 111.648 340.557C111.027 340.064 110.184 339.818 109.117 339.818C108.121 339.818 107.318 340.059 106.709 340.539C106.111 341.008 105.812 341.629 105.812 342.402H99.6602C99.6602 340.996 100.059 339.736 100.855 338.623C101.664 337.51 102.801 336.643 104.266 336.021C105.73 335.389 107.348 335.072 109.117 335.072C112.164 335.072 114.531 335.711 116.219 336.988C117.918 338.266 118.768 340.053 118.768 342.35C118.768 343.521 118.422 344.594 117.73 345.566C117.051 346.527 116.107 347.289 114.9 347.852C116.283 348.344 117.338 349.094 118.064 350.102C118.803 351.098 119.172 352.34 119.172 353.828C119.172 356.125 118.258 357.953 116.43 359.312C114.602 360.66 112.164 361.334 109.117 361.334C106.293 361.334 103.949 360.672 102.086 359.348C100.223 358.012 99.291 356.195 99.291 353.898H105.479C105.479 354.66 105.818 355.305 106.498 355.832C107.178 356.348 108.051 356.605 109.117 356.605C110.266 356.605 111.197 356.336 111.912 355.797C112.627 355.258 112.984 354.555 112.984 353.688C112.984 352.422 112.68 351.531 112.07 351.016C111.461 350.488 110.57 350.225 109.398 350.225H106.111V345.654H109.609C111.602 345.596 112.598 344.547 112.598 342.508ZM137.348 356.219H128.893L127.416 361H120.824L130.211 335.406H136.012L145.469 361H138.842L137.348 356.219ZM130.369 351.455H135.871L133.111 342.578L130.369 351.455ZM164.611 340.17H153.484V361H147.314V335.406H164.611V340.17ZM173.594 352.316V361H167.424V335.406H177.637C179.594 335.406 181.322 335.77 182.822 336.496C184.334 337.211 185.5 338.236 186.32 339.572C187.152 340.896 187.568 342.402 187.568 344.09C187.568 346.586 186.672 348.584 184.879 350.084C183.098 351.572 180.648 352.316 177.531 352.316H173.594ZM173.594 347.553H177.637C178.832 347.553 179.74 347.254 180.361 346.656C180.994 346.059 181.311 345.215 181.311 344.125C181.311 342.93 180.988 341.975 180.344 341.26C179.699 340.545 178.82 340.182 177.707 340.17H173.594V347.553ZM200.805 346.516V346.533L205.041 335.406H211.545L202.932 355.709C202.006 357.76 200.963 359.207 199.803 360.051C198.654 360.883 197.307 361.322 195.76 361.369H194.512L193.562 361.334L193.457 356.553C193.598 356.6 194.008 356.623 194.688 356.623C195.625 356.623 196.328 356.465 196.797 356.148C197.277 355.82 197.664 355.193 197.957 354.268L198.256 353.424L189.01 335.406H195.566L200.805 346.516ZM226.117 342.508C226.117 341.699 225.801 341.049 225.168 340.557C224.547 340.064 223.703 339.818 222.637 339.818C221.641 339.818 220.838 340.059 220.229 340.539C219.631 341.008 219.332 341.629 219.332 342.402H213.18C213.18 340.996 213.578 339.736 214.375 338.623C215.184 337.51 216.32 336.643 217.785 336.021C219.25 335.389 220.867 335.072 222.637 335.072C225.684 335.072 228.051 335.711 229.738 336.988C231.438 338.266 232.287 340.053 232.287 342.35C232.287 343.521 231.941 344.594 231.25 345.566C230.57 346.527 229.627 347.289 228.42 347.852C229.803 348.344 230.857 349.094 231.584 350.102C232.322 351.098 232.691 352.34 232.691 353.828C232.691 356.125 231.777 357.953 229.949 359.312C228.121 360.66 225.684 361.334 222.637 361.334C219.812 361.334 217.469 360.672 215.605 359.348C213.742 358.012 212.811 356.195 212.811 353.898H218.998C218.998 354.66 219.338 355.305 220.018 355.832C220.697 356.348 221.57 356.605 222.637 356.605C223.785 356.605 224.717 356.336 225.432 355.797C226.146 355.258 226.504 354.555 226.504 353.688C226.504 352.422 226.199 351.531 225.59 351.016C224.98 350.488 224.09 350.225 222.918 350.225H219.631V345.654H223.129C225.121 345.596 226.117 344.547 226.117 342.508ZM251.342 335.406H257.512V361H251.342V344.863L242.148 361H235.979V335.406H242.148V351.561L251.342 335.406ZM280.855 340.17H273.174V361H267.004V340.17H259.463V335.406H280.855V340.17ZM289.961 344.213H293.143C295.17 344.213 296.963 344.559 298.521 345.25C300.08 345.941 301.275 346.92 302.107 348.186C302.951 349.439 303.373 350.881 303.373 352.51C303.373 355.029 302.436 357.074 300.561 358.645C298.697 360.215 296.189 361 293.037 361H283.773V335.406H289.961V344.213ZM289.961 348.959V356.254H293.125C294.379 356.254 295.369 355.902 296.096 355.199C296.834 354.496 297.203 353.588 297.203 352.475C297.203 351.42 296.84 350.57 296.113 349.926C295.387 349.281 294.379 348.959 293.09 348.959H289.961ZM331.322 337.586C334.65 337.586 337.299 338.582 339.268 340.574C341.248 342.555 342.238 345.15 342.238 348.361C342.238 349.932 341.975 351.361 341.447 352.65C340.932 353.928 340.205 355.018 339.268 355.92C337.287 357.854 334.639 358.82 331.322 358.82V362.055H325.381V358.82C322.018 358.82 319.346 357.854 317.365 355.92C315.385 353.986 314.395 351.479 314.395 348.396C314.395 346.768 314.658 345.291 315.186 343.967C315.713 342.643 316.451 341.512 317.4 340.574C319.393 338.582 322.053 337.586 325.381 337.586V334.352H331.322V337.586ZM325.152 342.543C323.617 342.543 322.404 343.059 321.514 344.09C320.635 345.121 320.195 346.557 320.195 348.396C320.195 350.084 320.641 351.42 321.531 352.404C322.422 353.377 323.705 353.863 325.381 353.863V342.543H325.152ZM331.322 342.543V353.863H331.586C333.051 353.863 334.223 353.383 335.102 352.422C335.992 351.449 336.438 350.096 336.438 348.361C336.438 346.557 336.004 345.139 335.137 344.107C334.281 343.064 333.01 342.543 331.322 342.543ZM366.988 348.73C366.988 351.227 366.525 353.436 365.6 355.357C364.674 357.279 363.355 358.762 361.645 359.805C359.945 360.836 358.006 361.352 355.826 361.352C353.646 361.352 351.713 360.854 350.025 359.857C348.338 358.85 347.02 357.414 346.07 355.551C345.133 353.688 344.641 351.549 344.594 349.135V347.693C344.594 345.186 345.051 342.977 345.965 341.066C346.891 339.145 348.209 337.662 349.92 336.619C351.643 335.576 353.6 335.055 355.791 335.055C357.959 335.055 359.893 335.57 361.592 336.602C363.291 337.633 364.609 339.104 365.547 341.014C366.496 342.912 366.977 345.092 366.988 347.553V348.73ZM360.713 347.658C360.713 345.115 360.285 343.188 359.43 341.875C358.586 340.551 357.373 339.889 355.791 339.889C352.697 339.889 351.062 342.209 350.887 346.85L350.869 348.73C350.869 351.238 351.285 353.166 352.117 354.514C352.949 355.861 354.186 356.535 355.826 356.535C357.385 356.535 358.586 355.873 359.43 354.549C360.273 353.225 360.701 351.32 360.713 348.836V347.658ZM388.75 340.17H381.068V361H374.898V340.17H367.357V335.406H388.75V340.17ZM412.551 348.73C412.551 351.227 412.088 353.436 411.162 355.357C410.236 357.279 408.918 358.762 407.207 359.805C405.508 360.836 403.568 361.352 401.389 361.352C399.209 361.352 397.275 360.854 395.588 359.857C393.9 358.85 392.582 357.414 391.633 355.551C390.695 353.688 390.203 351.549 390.156 349.135V347.693C390.156 345.186 390.613 342.977 391.527 341.066C392.453 339.145 393.771 337.662 395.482 336.619C397.205 335.576 399.162 335.055 401.354 335.055C403.521 335.055 405.455 335.57 407.154 336.602C408.854 337.633 410.172 339.104 411.109 341.014C412.059 342.912 412.539 345.092 412.551 347.553V348.73ZM406.275 347.658C406.275 345.115 405.848 343.188 404.992 341.875C404.148 340.551 402.936 339.889 401.354 339.889C398.26 339.889 396.625 342.209 396.449 346.85L396.432 348.73C396.432 351.238 396.848 353.166 397.68 354.514C398.512 355.861 399.748 356.535 401.389 356.535C402.947 356.535 404.148 355.873 404.992 354.549C405.836 353.225 406.264 351.32 406.275 348.836V347.658Z" fill="#767676"/>
</svg>
