<?xml version="1.0" standalone="no"?>
<!DOCTYPE svg PUBLIC "-//W3C//DTD SVG 20010904//EN"
 "http://www.w3.org/TR/2001/REC-SVG-20010904/DTD/svg10.dtd">
<svg version="1.0" xmlns="http://www.w3.org/2000/svg"
 width="512.000000pt" height="512.000000pt" viewBox="0 0 512.000000 512.000000"
 preserveAspectRatio="xMidYMid meet">
<metadata>
Created by potrace 1.11, written by Peter Selinger 2001-2013
</metadata>
<g transform="translate(0.000000,512.000000) scale(0.100000,-0.100000)"
fill="#000000" stroke="none">
<path d="M2181 4731 c-16 -16 -17 -26 -10 -72 5 -30 11 -70 14 -89 3 -19 7
-46 10 -60 8 -39 11 -54 45 -253 27 -157 30 -193 20 -212 -30 -57 -129 -66
-174 -16 -10 11 -26 74 -41 162 -14 79 -28 155 -30 169 -3 14 -8 42 -10 64
-13 91 -39 99 -155 43 -135 -64 -243 -139 -335 -232 -100 -102 -98 -99 -143
-174 -69 -111 -104 -240 -103 -372 l1 -85 -74 -1 c-54 0 -85 -6 -117 -21 -107
-52 -108 -172 -1 -223 46 -23 52 -23 502 -24 299 -1 469 -5 495 -13 100 -28
407 -84 468 -86 37 -1 106 6 155 16 48 9 161 32 252 49 l165 32 440 2 c242 1
451 5 465 10 46 14 89 54 101 94 10 33 9 45 -7 78 -28 56 -85 84 -178 86 l-74
2 1 75 c3 139 -19 228 -84 349 -98 182 -264 328 -502 441 -113 54 -135 44
-153 -70 -3 -25 -8 -52 -9 -60 -7 -39 -19 -106 -20 -110 -1 -3 -7 -45 -15 -94
-11 -72 -18 -93 -39 -112 -14 -13 -33 -24 -41 -25 -8 0 -25 -2 -38 -3 -29 -3
-80 28 -91 57 -5 14 3 89 25 217 19 107 38 224 44 260 5 36 14 87 19 114 11
57 10 69 -8 90 -12 14 -56 16 -382 16 -347 0 -370 -1 -388 -19z"/>
<path d="M1910 3223 c-14 -2 -57 -13 -96 -23 -48 -13 -81 -17 -100 -11 -42 11
-71 7 -239 -34 -82 -20 -233 -57 -335 -81 -102 -25 -200 -50 -219 -57 -72 -26
-140 -121 -141 -198 0 -40 18 -100 118 -406 l69 -212 -41 -63 c-101 -155 -134
-305 -101 -468 4 -19 124 -271 268 -560 235 -473 266 -530 312 -575 74 -72
200 -129 335 -150 25 -4 54 -9 65 -11 11 -2 92 -6 181 -9 l160 -5 0 105 c-1
58 1 105 4 105 3 0 41 -12 85 -26 202 -64 431 -63 634 3 40 13 76 22 78 19 3
-3 5 -48 5 -100 -1 -81 2 -96 16 -100 21 -7 286 0 357 9 259 32 428 120 491
253 43 91 93 199 141 307 25 55 56 125 70 155 14 30 39 84 55 119 16 36 36 81
45 100 9 20 45 96 80 170 80 167 97 236 89 353 -7 102 -38 194 -97 285 -47 72
-53 26 53 388 86 289 90 325 53 400 -32 67 -84 105 -175 128 -190 49 -650 159
-685 163 -22 3 -51 1 -64 -4 -18 -6 -42 -3 -85 10 -110 34 -184 34 -346 -1
-80 -18 -156 -34 -170 -37 -14 -3 -65 -15 -115 -26 -106 -25 -105 -25 -220 0
-172 38 -330 73 -372 82 -41 10 -115 11 -163 3z m337 -257 c320 -71 310 -69
368 -56 28 7 59 13 70 16 11 2 112 24 224 49 224 49 258 51 360 13 119 -45
172 -92 269 -242 77 -120 168 -259 267 -411 39 -60 98 -150 130 -200 32 -49
71 -109 87 -133 45 -69 67 -147 64 -225 -3 -56 -11 -84 -44 -150 -22 -45 -76
-161 -120 -258 -44 -96 -87 -189 -95 -205 -16 -29 -16 -29 -11 26 9 110 11
249 2 262 -11 16 -38 -16 -39 -46 -4 -106 -117 -570 -167 -687 -16 -37 -29
-50 -66 -67 -72 -34 -181 -61 -280 -68 -50 -4 -93 -8 -96 -8 -3 -1 -5 193 -6
429 l-1 430 -25 55 c-27 60 -90 130 -141 157 -66 34 -126 39 -473 38 l-340 -2
-56 -25 c-71 -33 -133 -95 -166 -167 l-26 -56 -1 -425 0 -425 -55 0 c-139 1
-291 50 -338 110 -47 60 -140 413 -188 715 -6 40 -17 55 -33 46 -10 -6 -7
-222 4 -293 3 -18 3 -33 0 -33 -2 0 -59 109 -127 243 -67 133 -130 258 -140
277 -23 46 -38 127 -32 176 11 93 13 97 258 474 302 465 364 557 398 590 67
65 205 125 300 129 10 1 129 -24 265 -53z m-814 -49 c-4 -7 -27 -41 -50 -77
-116 -180 -153 -236 -163 -250 -5 -8 -31 -48 -57 -88 l-48 -72 -62 187 c-41
121 -59 191 -53 197 7 7 395 110 433 115 4 1 4 -5 0 -12z m2290 -3 c70 -13
380 -93 387 -101 8 -7 -29 -148 -87 -337 l-19 -59 -162 250 c-89 137 -162 253
-162 257 0 4 5 4 10 1 6 -4 20 -8 33 -11z m-827 -1455 c53 -28 55 -37 56 -351
l1 -291 -24 -18 c-28 -21 -195 -76 -254 -84 -56 -8 -203 -8 -245 0 -101 18
-161 37 -240 74 l-45 21 1 267 c1 148 2 282 3 300 1 18 11 44 25 60 31 36 61
38 420 36 203 -1 285 -4 302 -14z"/>
<path d="M2498 2505 c-2 -2 -28 -6 -58 -9 -82 -10 -172 -32 -241 -61 -62 -25
-65 -25 -365 -25 -293 0 -304 -1 -314 -20 -17 -31 18 -58 175 -136 77 -38 142
-70 144 -72 3 -1 -7 -15 -21 -30 -95 -102 -174 -284 -202 -460 -22 -144 -7
-192 27 -85 10 32 19 63 21 68 2 6 4 13 4 18 1 4 14 31 29 60 139 261 328 420
598 503 83 26 103 28 255 28 151 0 172 -2 254 -27 265 -82 472 -254 590 -494
34 -67 76 -184 76 -210 0 -23 20 -14 21 10 1 35 -2 108 -7 131 -36 190 -90
315 -191 443 l-33 41 32 14 c38 15 219 108 265 134 18 10 34 28 37 38 11 44 0
45 -333 49 l-316 3 -85 31 c-47 18 -116 37 -155 43 -68 10 -202 19 -207 15z"/>
<path d="M2363 2178 c-40 -10 -83 -61 -83 -97 0 -38 55 -117 102 -149 129 -85
281 -74 391 27 60 55 84 110 67 151 -7 16 -29 40 -49 52 -33 21 -48 23 -216
24 -99 0 -194 -3 -212 -8z"/>
<path d="M1746 1284 c-20 -51 19 -83 56 -46 16 16 18 23 9 41 -14 25 -56 28
-65 5z"/>
<path d="M3290 1281 c-13 -25 -4 -48 21 -56 26 -8 49 11 49 40 0 37 -52 49
-70 16z"/>
<path d="M1571 1202 c-7 -14 -6 -25 5 -40 19 -28 39 -28 58 -1 11 17 12 25 3
40 -15 24 -53 24 -66 1z"/>
<path d="M3461 1198 c-11 -30 -5 -45 22 -52 29 -7 49 12 45 43 -4 36 -54 43
-67 9z"/>
<path d="M1753 1078 c-21 -28 -23 -37 -7 -52 8 -9 22 -16 29 -16 22 0 45 29
38 48 -12 32 -43 42 -60 20z"/>
<path d="M3290 1071 c-25 -47 36 -83 64 -38 8 12 8 22 0 35 -16 25 -51 27 -64
3z"/>
<path d="M1576 995 c-22 -23 -2 -64 31 -65 20 0 43 30 36 48 -13 34 -42 41
-67 17z"/>
<path d="M3462 994 c-25 -45 28 -84 60 -44 17 21 17 24 2 41 -21 23 -50 24
-62 3z"/>
<path d="M1752 868 c-7 -7 -12 -22 -12 -35 0 -31 47 -44 67 -18 15 21 16 26 5
41 -11 18 -47 25 -60 12z"/>
<path d="M3296 864 c-19 -19 -20 -25 -3 -49 20 -27 67 -13 67 20 0 14 -8 29
-19 35 -25 13 -27 13 -45 -6z"/>
</g>
</svg>
