<svg width="32" height="32" viewBox="0 0 32 32" fill="none" xmlns="http://www.w3.org/2000/svg">
<path d="M16.0003 2.66699C10.8403 2.66699 6.66699 6.84033 6.66699 12.0003C6.66699 19.0003 16.0003 29.3337 16.0003 29.3337C16.0003 29.3337 25.3337 19.0003 25.3337 12.0003C25.3337 6.84033 21.1603 2.66699 16.0003 2.66699ZM16.0003 15.3337C15.1163 15.3337 14.2684 14.9825 13.6433 14.3573C13.0182 13.7322 12.667 12.8844 12.667 12.0003C12.667 11.1163 13.0182 10.2684 13.6433 9.6433C14.2684 9.01818 15.1163 8.66699 16.0003 8.66699C16.8844 8.66699 17.7322 9.01818 18.3573 9.6433C18.9825 10.2684 19.3337 11.1163 19.3337 12.0003C19.3337 12.8844 18.9825 13.7322 18.3573 14.3573C17.7322 14.9825 16.8844 15.3337 16.0003 15.3337Z" fill="#FC7F0C"/>
</svg>
