<svg width="32" height="32" viewBox="0 0 32 32" fill="none" xmlns="http://www.w3.org/2000/svg">
<path fill-rule="evenodd" clip-rule="evenodd" d="M23.7783 9.30271C24.1688 8.91219 24.1688 8.27902 23.7783 7.88849C23.3877 7.49797 22.7546 7.49797 22.3641 7.88849L16 14.2526L9.63594 7.8885C9.24542 7.49798 8.61225 7.49798 8.22173 7.8885C7.8312 8.27902 7.8312 8.91219 8.22173 9.30271L14.5858 15.6668L8.22192 22.0306C7.83139 22.4212 7.83139 23.0543 8.22192 23.4448C8.61244 23.8354 9.24561 23.8354 9.63613 23.4448L16 17.081L22.3639 23.4448C22.7544 23.8354 23.3876 23.8354 23.7781 23.4448C24.1686 23.0543 24.1686 22.4212 23.7781 22.0306L17.4142 15.6668L23.7783 9.30271Z" fill="#2b2929"/>
</svg>
