<svg width="32" height="32" viewBox="0 0 32 32" fill="none" xmlns="http://www.w3.org/2000/svg">
<path d="M3.20508 9.41479L16.0003 15.8116L28.7955 9.41479C28.7481 8.5995 28.3908 7.83317 27.7968 7.27275C27.2028 6.71234 26.4169 6.40024 25.6003 6.40039H6.40028C5.58361 6.40024 4.79779 6.71234 4.20376 7.27275C3.60973 7.83317 3.25244 8.5995 3.20508 9.41479Z" fill="#FC7F0C"/>
<path d="M28.8002 12.9893L16.0002 19.3893L3.2002 12.9893V22.4005C3.2002 23.2492 3.53734 24.0631 4.13745 24.6632C4.73757 25.2633 5.5515 25.6005 6.4002 25.6005H25.6002C26.4489 25.6005 27.2628 25.2633 27.8629 24.6632C28.4631 24.0631 28.8002 23.2492 28.8002 22.4005V12.9893Z" fill="#FC7F0C"/>
</svg>
