<svg width="289" height="77" viewBox="0 0 289 77" fill="none" xmlns="http://www.w3.org/2000/svg">
<path fill-rule="evenodd" clip-rule="evenodd" d="M82.9892 10.217V37.1764H93.4693C96.5306 37.1517 98.8883 36.4728 100.542 35.1396C102.197 33.8065 103.024 31.8438 103.024 29.2515C103.024 27.7332 102.622 26.4494 101.82 25.4002C101.03 24.3509 99.9437 23.6535 98.5612 23.3079C99.7709 22.8388 100.715 22.1043 101.394 21.1045C102.073 20.0922 102.413 18.9257 102.413 17.6049C102.413 15.1855 101.567 13.3524 99.8758 12.1056C98.1847 10.8465 95.7035 10.217 92.4324 10.217H82.9892ZM88.544 32.714V25.4372H93.6359C96.1911 25.4742 97.4687 26.7272 97.4687 29.196C97.4687 30.2946 97.0984 31.1587 96.3578 31.7882C95.6295 32.4054 94.6111 32.714 93.3026 32.714H88.544ZM92.6546 21.5118H88.544V14.7164H92.4324C93.963 14.7164 95.0802 14.988 95.7838 15.5311C96.4997 16.0619 96.8577 16.9383 96.8577 18.1604C96.8577 20.3453 95.4567 21.4624 92.6546 21.5118Z" fill="#F7F0E9"/>
<path d="M127.613 27.9739V10.217H122.04V28.1591C121.99 31.4426 120.404 33.0844 117.281 33.0844C115.787 33.0844 114.615 32.6832 113.763 31.8808C112.923 31.0661 112.504 29.7762 112.504 28.011V10.217H106.949V28.1776C106.986 31.0908 107.93 33.3806 109.782 35.0471C111.634 36.7135 114.133 37.5467 117.281 37.5467C120.478 37.5467 122.996 36.6888 124.836 34.973C126.687 33.2572 127.613 30.9241 127.613 27.9739Z" fill="#F7F0E9"/>
<path d="M149.517 32.714H137.723V10.217H132.168V37.1764H149.517V32.714Z" fill="#F7F0E9"/>
<path d="M170.07 32.714H158.276V10.217H152.721V37.1764H170.07V32.714Z" fill="#F7F0E9"/>
<path fill-rule="evenodd" clip-rule="evenodd" d="M173.274 10.217V37.1764H181.624C183.982 37.1641 186.099 36.6209 187.975 35.547C189.852 34.4731 191.302 32.9609 192.327 31.0106C193.364 29.0602 193.882 26.8321 193.882 24.3263V23.0857C193.882 20.5798 193.357 18.3456 192.308 16.3829C191.259 14.4078 189.796 12.8895 187.92 11.8279C186.056 10.754 183.939 10.217 181.569 10.217H173.274ZM178.828 32.714V14.7164H181.569C183.754 14.7164 185.414 15.4262 186.55 16.8458C187.685 18.253 188.253 20.3268 188.253 23.0672V24.4929C188.228 27.1345 187.642 29.1651 186.494 30.5847C185.346 32.0043 183.686 32.714 181.513 32.714H178.828Z" fill="#F7F0E9"/>
<path fill-rule="evenodd" clip-rule="evenodd" d="M218.675 31.2883C219.613 29.2886 220.082 26.9617 220.082 24.3077V23.1042C220.082 20.4626 219.601 18.1357 218.638 16.1236C217.687 14.0992 216.336 12.55 214.583 11.4761C212.842 10.3898 210.849 9.84668 208.602 9.84668C206.356 9.84668 204.356 10.3898 202.603 11.4761C200.863 12.55 199.511 14.0992 198.548 16.1236C197.598 18.1357 197.122 20.4687 197.122 23.1227V24.4559C197.135 27.0481 197.622 29.3441 198.585 31.3438C199.548 33.3312 200.906 34.8619 202.659 35.9358C204.411 37.0098 206.405 37.5467 208.639 37.5467C210.898 37.5467 212.898 37.0036 214.638 35.9173C216.391 34.831 217.737 33.288 218.675 31.2883ZM212.935 16.6421C213.947 18.111 214.453 20.2589 214.453 23.0857V24.4003C214.441 27.2024 213.935 29.3379 212.935 30.8069C211.935 32.2635 210.503 32.9918 208.639 32.9918C206.738 32.9918 205.282 32.2326 204.269 30.7143C203.257 29.196 202.751 27.0605 202.751 24.3077V22.9931C202.764 20.191 203.276 18.0678 204.288 16.6236C205.3 15.167 206.738 14.4387 208.602 14.4387C210.479 14.4387 211.923 15.1731 212.935 16.6421Z" fill="#F7F0E9"/>
<path d="M243.153 32.714H229.562L242.857 13.4018V10.217H222.637V14.7164H235.95L222.619 33.9176V37.1764H243.153V32.714Z" fill="#F7F0E9"/>
<path d="M252.226 25.4928H262.891V21.1415H252.226V14.7164H264.706V10.217H246.671V37.1764H264.743V32.714H252.226V25.4928Z" fill="#F7F0E9"/>
<path fill-rule="evenodd" clip-rule="evenodd" d="M273.557 27.3073H277.982L283.037 37.1764H288.999V36.9172L283.166 25.9001C284.784 25.1718 285.987 24.1966 286.777 22.9746C287.579 21.7402 287.981 20.2033 287.981 18.3641C287.981 15.7718 287.117 13.7659 285.388 12.3464C283.66 10.9268 281.204 10.217 278.019 10.217H268.002V37.1764H273.557V27.3073ZM278.038 22.8079H273.557V14.7164H278.019C279.513 14.7164 280.617 15.0806 281.333 15.8089C282.062 16.5372 282.426 17.537 282.426 18.8085C282.426 20.0552 282.043 21.0366 281.278 21.7525C280.513 22.4561 279.432 22.8079 278.038 22.8079Z" fill="#F7F0E9"/>
<path d="M94.9413 68.3467C96.2097 67.8745 97.1401 67.2172 97.7326 66.3747V59.1812H90.5946V60.6255H96.0245V65.847C95.6912 66.2544 95.182 66.6108 94.4969 66.9163C93.4415 67.3792 92.1778 67.6107 90.7057 67.6107C89.4374 67.6107 88.3125 67.2866 87.3312 66.6386C86.3591 65.9905 85.6092 65.0786 85.0815 63.9028C84.563 62.7178 84.3038 61.3569 84.3038 59.82V57.4315C84.3038 54.9873 84.8547 53.0941 85.9564 51.7517C87.0581 50.4092 88.5533 49.738 90.4419 49.738C91.988 49.738 93.2378 50.1222 94.1914 50.8907C95.1542 51.6498 95.7606 52.77 96.0106 54.2513H97.7187C97.478 52.3905 96.7235 50.9323 95.4551 49.8769C94.1868 48.8122 92.5111 48.2799 90.428 48.2799C88.0394 48.2799 86.1369 49.0946 84.7204 50.724C83.3039 52.3442 82.5957 54.5568 82.5957 57.362V59.9172C82.605 61.7133 82.9475 63.3057 83.6233 64.6944C84.2992 66.0831 85.2528 67.157 86.4841 67.9162C87.7154 68.6753 89.1226 69.0549 90.7057 69.0549C92.2704 69.0549 93.6822 68.8188 94.9413 68.3467Z" fill="#F7F0E9"/>
<path fill-rule="evenodd" clip-rule="evenodd" d="M133.062 60.3616H138.937L143.825 68.7772H145.644V68.5967L140.589 60.0006C141.867 59.621 142.885 58.9359 143.644 57.9453C144.404 56.9547 144.783 55.8113 144.783 54.5152C144.783 52.6358 144.177 51.173 142.964 50.1269C141.751 49.0807 140.066 48.5576 137.909 48.5576H131.34V68.7772H133.062V60.3616ZM138.298 58.9035H133.062V50.0158H137.881C139.52 50.0158 140.793 50.4092 141.7 51.1962C142.607 51.9831 143.061 53.0894 143.061 54.5152C143.061 55.8113 142.626 56.8667 141.756 57.6814C140.885 58.4961 139.733 58.9035 138.298 58.9035Z" fill="#F7F0E9"/>
<path fill-rule="evenodd" clip-rule="evenodd" d="M192.209 64.6666C192.857 63.2594 193.181 61.6254 193.181 59.7645V57.3481C193.153 55.5428 192.815 53.9551 192.167 52.5849C191.519 51.2147 190.598 50.1546 189.403 49.4047C188.218 48.6548 186.848 48.2799 185.293 48.2799C183.738 48.2799 182.363 48.6641 181.168 49.4325C179.974 50.1917 179.048 51.2841 178.391 52.7099C177.743 54.1263 177.419 55.7558 177.419 57.5981V59.6812C177.419 62.5512 178.146 64.8333 179.599 66.5275C181.053 68.2124 182.96 69.0549 185.321 69.0549C186.885 69.0549 188.265 68.6753 189.459 67.9162C190.653 67.157 191.57 66.0738 192.209 64.6666ZM189.82 51.8489C190.922 53.2283 191.473 55.1355 191.473 57.5703V59.7089C191.473 62.1808 190.931 64.1111 189.848 65.4998C188.765 66.8793 187.256 67.569 185.321 67.569C183.413 67.569 181.904 66.87 180.793 65.4721C179.682 64.0648 179.127 62.1623 179.127 59.7645V57.6537C179.127 55.1725 179.682 53.2422 180.793 51.8627C181.914 50.474 183.413 49.7797 185.293 49.7797C187.209 49.7797 188.718 50.4694 189.82 51.8489Z" fill="#F7F0E9"/>
<path d="M240.217 62.3614V48.5576H238.495V62.2503C238.495 63.9352 238.009 65.2499 237.037 66.1942C236.074 67.1385 234.76 67.6107 233.093 67.6107C231.427 67.6107 230.108 67.1431 229.135 66.2081C228.163 65.2638 227.677 63.9399 227.677 62.2364V48.5576H225.983V62.4863C226.029 64.5416 226.691 66.1525 227.969 67.319C229.256 68.4763 230.964 69.0549 233.093 69.0549C234.491 69.0549 235.727 68.7864 236.801 68.2495C237.884 67.7033 238.722 66.9256 239.315 65.9165C239.907 64.9073 240.208 63.7223 240.217 62.3614Z" fill="#F7F0E9"/>
<path fill-rule="evenodd" clip-rule="evenodd" d="M275.492 68.7772V60.5422H280.63C282.852 60.5422 284.546 60.0283 285.713 59.0007C286.888 57.9638 287.476 56.4964 287.476 54.5985C287.476 52.7191 286.865 51.2425 285.643 50.1685C284.43 49.0946 282.773 48.5576 280.672 48.5576H273.784V68.7772H275.492ZM280.672 59.0979H275.492V50.0158H280.783C282.375 50.0343 283.602 50.4602 284.463 51.2934C285.333 52.1173 285.768 53.2283 285.768 54.6263C285.768 56.0335 285.333 57.1306 284.463 57.9175C283.592 58.7044 282.329 59.0979 280.672 59.0979Z" fill="#F7F0E9"/>
<path d="M53.033 55.5292C53.0857 55.7646 53.4346 55.749 53.4346 55.5078C53.4346 51.3352 51.8979 47.5241 49.3633 44.617C51.2669 43.8497 53.1205 42.9076 54.9154 41.8031C55.4897 41.4497 55.231 40.5988 54.5566 40.5988H44.0973C41.9584 39.5695 39.5634 38.9932 37.0347 38.9932C34.506 38.9932 32.111 39.5695 29.9721 40.5988H19.742C19.0676 40.5988 18.8088 41.4497 19.3832 41.8031C21.1249 42.8748 22.9219 43.7938 24.7663 44.5483C22.1959 47.464 20.6348 51.3023 20.6348 55.5078C20.6348 55.749 20.9837 55.7646 21.0364 55.5292C22.6858 48.164 29.2223 42.6631 37.0347 42.6631C44.8471 42.6631 51.3837 48.164 53.033 55.5292Z" fill="#F7F0E9"/>
<path d="M41.9762 47.1357C42.7121 45.8056 41.4221 44.4981 39.9019 44.4981H34.6264C33.1063 44.4981 31.8163 45.8056 32.5521 47.1357C33.4729 48.8001 35.238 49.9259 37.2642 49.9259C39.2904 49.9259 41.0555 48.8001 41.9762 47.1357Z" fill="#F7F0E9"/>
<path d="M51.1409 64.2238C51.1409 64.6038 50.8328 64.9119 50.4528 64.9119C50.0728 64.9119 49.7647 64.6038 49.7647 64.2238C49.7647 63.8438 50.0728 63.5357 50.4528 63.5357C50.8328 63.5357 51.1409 63.8438 51.1409 64.2238Z" fill="#F7F0E9"/>
<path d="M53.4346 62.6182C53.8146 62.6182 54.1227 62.3102 54.1227 61.9301C54.1227 61.5501 53.8146 61.242 53.4346 61.242C53.0546 61.242 52.7465 61.5501 52.7465 61.9301C52.7465 62.3102 53.0546 62.6182 53.4346 62.6182Z" fill="#F7F0E9"/>
<path d="M54.1227 65.6C54.1227 65.9801 53.8146 66.2881 53.4346 66.2881C53.0546 66.2881 52.7465 65.9801 52.7465 65.6C52.7465 65.22 53.0546 64.9119 53.4346 64.9119C53.8146 64.9119 54.1227 65.22 54.1227 65.6Z" fill="#F7F0E9"/>
<path d="M50.4528 68.5818C50.8328 68.5818 51.1409 68.2737 51.1409 67.8937C51.1409 67.5137 50.8328 67.2056 50.4528 67.2056C50.0728 67.2056 49.7647 67.5137 49.7647 67.8937C49.7647 68.2737 50.0728 68.5818 50.4528 68.5818Z" fill="#F7F0E9"/>
<path d="M51.1409 60.5539C51.1409 60.9339 50.8328 61.242 50.4528 61.242C50.0728 61.242 49.7647 60.9339 49.7647 60.5539C49.7647 60.1739 50.0728 59.8658 50.4528 59.8658C50.8328 59.8658 51.1409 60.1739 51.1409 60.5539Z" fill="#F7F0E9"/>
<path d="M23.6166 64.9119C23.2366 64.9119 22.9285 64.6038 22.9285 64.2238C22.9285 63.8438 23.2366 63.5357 23.6166 63.5357C23.9967 63.5357 24.3047 63.8438 24.3047 64.2238C24.3047 64.6038 23.9967 64.9119 23.6166 64.9119Z" fill="#F7F0E9"/>
<path d="M19.9467 61.9301C19.9467 62.3102 20.2548 62.6182 20.6348 62.6182C21.0149 62.6182 21.3229 62.3102 21.3229 61.9301C21.3229 61.5501 21.0149 61.242 20.6348 61.242C20.2548 61.242 19.9467 61.5501 19.9467 61.9301Z" fill="#F7F0E9"/>
<path d="M20.6348 66.2881C20.2548 66.2881 19.9467 65.9801 19.9467 65.6C19.9467 65.22 20.2548 64.9119 20.6348 64.9119C21.0149 64.9119 21.3229 65.22 21.3229 65.6C21.3229 65.9801 21.0149 66.2881 20.6348 66.2881Z" fill="#F7F0E9"/>
<path d="M22.9285 67.8937C22.9285 68.2737 23.2366 68.5818 23.6166 68.5818C23.9967 68.5818 24.3047 68.2737 24.3047 67.8937C24.3047 67.5137 23.9967 67.2056 23.6166 67.2056C23.2366 67.2056 22.9285 67.5137 22.9285 67.8937Z" fill="#F7F0E9"/>
<path d="M23.6166 61.242C23.2366 61.242 22.9285 60.9339 22.9285 60.5539C22.9285 60.1739 23.2366 59.8658 23.6166 59.8658C23.9967 59.8658 24.3047 60.1739 24.3047 60.5539C24.3047 60.9339 23.9967 61.242 23.6166 61.242Z" fill="#F7F0E9"/>
<path fill-rule="evenodd" clip-rule="evenodd" d="M44.0305 72.4532C41.7742 73.3965 39.3424 73.8779 36.8783 73.8566C34.5194 73.8363 32.198 73.3557 30.039 72.4532V76.151H27.7671C25.9632 76.151 23.7264 76.0099 21.6677 75.4872C19.6693 74.9799 17.4739 74.0215 16.2288 72.1042L16.1725 72.0175L8.40662 56.4744C6.34204 53.2205 6.36157 49.2027 8.46521 45.9633L9.57155 44.2596L6.52751 34.9392C5.80411 32.7243 7.07451 30.4395 9.33536 29.8894L20.89 27.0777C21.6601 26.8903 22.4448 26.97 23.1405 27.2569C24.5853 26.6831 26.1596 26.3779 27.7671 26.3779H27.9666L37.1494 28.3984L46.3322 26.3779H46.5317C48.0745 26.3779 49.5866 26.659 50.983 27.1889C51.6249 26.9213 52.3506 26.8458 53.0638 27.0193L64.9348 29.9079C67.1428 30.4452 68.416 32.6428 67.7836 34.8249L64.9498 44.6024L65.8336 45.9633C67.9309 49.1929 67.9566 53.1963 65.9108 56.4449L58.8325 71.9896L58.7581 72.1042C57.48 74.0724 55.0414 75.0077 52.9388 75.4961C50.7277 76.0097 48.3351 76.151 46.5317 76.151H44.0305V72.4532ZM27.5766 30.0498C24.7525 30.1086 22.2515 31.472 20.9254 33.5141L11.5431 47.962C10.2091 50.0162 10.2091 52.5127 11.5431 54.5669L11.5994 54.6537L15.8372 63.1356C15.6736 61.2689 15.5887 59.3574 15.5887 57.4116C15.5887 56.9992 16.1549 56.9773 16.2125 57.3856C16.8564 61.9454 17.8372 66.2138 19.2629 69.9919L19.356 70.1782C19.8612 70.8923 20.9215 71.5115 22.5707 71.9302C23.7664 72.2337 25.0965 72.3871 26.3691 72.4482V58.719C26.3691 55.6787 28.8337 53.2141 31.8739 53.2141H42.1955C45.2358 53.2141 47.7004 55.6787 47.7004 58.719V72.4592C49.1077 72.4067 50.6836 72.2523 52.1085 71.9213C53.6114 71.5722 54.6555 71.0926 55.2603 70.5724C56.7575 66.6649 57.8815 61.6407 58.5296 57.3818C58.5879 56.9987 59.1688 57.024 59.1688 57.4116C59.1688 59.2743 59.091 61.1055 58.9408 62.896L62.6813 54.6815L62.7557 54.5669C64.0897 52.5127 64.0897 50.0162 62.7557 47.962L53.3734 33.5141C52.0473 31.472 49.5463 30.1086 46.7221 30.0498L37.1494 32.156L27.5766 30.0498ZM30.039 68.3832C32.1423 69.5441 34.5023 70.1661 36.91 70.1869C39.4012 70.2084 41.8522 69.5855 44.0305 68.3833V58.719C44.0305 57.7055 43.2089 56.884 42.1955 56.884H31.8739C30.8605 56.884 30.039 57.7055 30.039 58.719V68.3832ZM17.7894 31.6048L10.3739 33.4093C10.1227 33.4704 9.98155 33.7243 10.0619 33.9704L12.1338 40.314L17.7894 31.6048ZM62.3104 40.5379L56.5291 31.6351L63.8962 33.4278C64.1415 33.4875 64.283 33.7317 64.2127 33.9741L62.3104 40.5379Z" fill="#F7F0E9"/>
<path d="M44.2894 1.06202C44.3844 0.506891 43.9558 0 43.3913 0H31.2778C30.7133 0 30.2847 0.506891 30.3797 1.06202L32.1726 11.5346C32.3023 12.2924 31.6161 12.9883 30.6398 13.089C29.6635 13.1897 28.7669 12.657 28.6371 11.8992L27.4552 4.99538C27.3601 4.4398 26.7849 4.10297 26.2603 4.31209C19.4096 7.04306 14.7848 12.229 14.7848 18.1771C14.7848 18.7608 14.8294 19.3373 14.9162 19.9048H13.0734C11.4235 19.9048 10.0859 20.943 10.0859 22.2236C10.0859 23.5043 11.4235 24.5425 13.0734 24.5425H24.1533C26.349 24.5425 28.5392 24.763 30.6908 25.2009C34.881 26.0535 39.1975 26.0782 43.3971 25.2737L43.9108 25.1753C46.1081 24.7544 48.3404 24.5425 50.5777 24.5425H61.4589C63.1088 24.5425 64.4464 23.5043 64.4464 22.2236C64.4464 20.943 63.1088 19.9048 61.4589 19.9048H59.7586C59.8454 19.3373 59.89 18.7608 59.89 18.1771C59.89 12.2274 55.2627 7.04027 48.4089 4.30989C47.8844 4.10092 47.3093 4.43774 47.2142 4.99325L46.0319 11.8992C45.9022 12.657 45.0056 13.1897 44.0293 13.089C43.053 12.9883 42.3667 12.2924 42.4965 11.5346L44.2894 1.06202Z" fill="#F7F0E9"/>
</svg>
