<svg width="48" height="48" viewBox="0 0 48 48" fill="none" xmlns="http://www.w3.org/2000/svg">
<path fill-rule="evenodd" clip-rule="evenodd" d="M21.4107 19.5804C22.2143 19.1042 23.0774 18.8661 24 18.8661C24.9226 18.8661 25.7708 19.1042 26.5446 19.5804C27.3482 20.0268 27.9732 20.6518 28.4196 21.4554C28.8958 22.2292 29.1339 23.0774 29.1339 24C29.1339 24.9226 28.8958 25.7857 28.4196 26.5893C27.9732 27.3631 27.3482 27.9881 26.5446 28.4643C25.7708 28.9107 24.9226 29.1339 24 29.1339C23.0774 29.1339 22.2143 28.9107 21.4107 28.4643C20.6369 27.9881 20.0119 27.3631 19.5357 26.5893C19.0893 25.7857 18.8661 24.9226 18.8661 24C18.8661 23.0774 19.0893 22.2292 19.5357 21.4554C20.0119 20.6518 20.6369 20.0268 21.4107 19.5804ZM21.6339 26.3661C22.2887 27.0208 23.0774 27.3482 24 27.3482C24.9226 27.3482 25.7113 27.0208 26.3661 26.3661C27.0208 25.7113 27.3482 24.9226 27.3482 24C27.3482 23.0774 27.0208 22.2887 26.3661 21.6339C25.7113 20.9792 24.9226 20.6518 24 20.6518C23.0774 20.6518 22.2887 20.9792 21.6339 21.6339C20.9792 22.2887 20.6518 23.0774 20.6518 24C20.6518 24.9226 20.9792 25.7113 21.6339 26.3661Z" fill="#F1F1F1"/>
<path d="M30.1607 19.4911C30.3988 19.253 30.5327 18.9702 30.5625 18.6429C30.5625 18.3155 30.4435 18.0327 30.2054 17.7946C29.9673 17.5565 29.6845 17.4375 29.3571 17.4375C29.0298 17.4375 28.747 17.5565 28.5089 17.7946C28.2708 18.0327 28.1518 18.3155 28.1518 18.6429C28.1518 18.9702 28.2708 19.253 28.5089 19.4911C28.747 19.7292 29.0298 19.8482 29.3571 19.8482C29.6845 19.8482 29.9524 19.7292 30.1607 19.4911Z" fill="#F1F1F1"/>
<path fill-rule="evenodd" clip-rule="evenodd" d="M33.5536 17.6161C33.7619 18.2411 33.8958 18.9851 33.9554 19.8482C33.9851 20.6815 34 22.0655 34 24C34 25.9345 33.9702 27.3333 33.9107 28.1964C33.881 29.0298 33.7619 29.7589 33.5536 30.3839C33.2857 31.128 32.869 31.7827 32.3036 32.3482C31.7679 32.8839 31.128 33.2857 30.3839 33.5536C29.7589 33.7619 29.0149 33.881 28.1518 33.9107C27.3185 33.9702 25.9345 34 24 34C22.0655 34 20.6667 33.9702 19.8036 33.9107C18.9702 33.881 18.2411 33.747 17.6161 33.5089C16.872 33.2708 16.2173 32.8839 15.6518 32.3482C15.1161 31.7827 14.7143 31.128 14.4464 30.3839C14.2381 29.7589 14.1042 29.0298 14.0446 28.1964C14.0149 27.3333 14 25.9345 14 24C14 22.0655 14.0149 20.6815 14.0446 19.8482C14.1042 18.9851 14.2381 18.2411 14.4464 17.6161C14.7143 16.872 15.1161 16.2321 15.6518 15.6964C16.2173 15.131 16.872 14.7143 17.6161 14.4464C18.2411 14.2381 18.9702 14.119 19.8036 14.0893C20.6667 14.0298 22.0655 14 24 14C25.9345 14 27.3185 14.0298 28.1518 14.0893C29.0149 14.119 29.7589 14.2381 30.3839 14.4464C31.128 14.7143 31.7679 15.131 32.3036 15.6964C32.869 16.2321 33.2857 16.872 33.5536 17.6161ZM29.8929 31.8125C30.8155 31.4256 31.4554 30.7857 31.8125 29.8929C31.9911 29.3869 32.1101 28.5833 32.1696 27.4821C32.1994 26.8274 32.2143 25.9048 32.2143 24.7143V23.2857C32.2143 22.0655 32.1994 21.1429 32.1696 20.5179C32.1101 19.3869 31.9911 18.5833 31.8125 18.1071C31.4554 17.1845 30.8155 16.5446 29.8929 16.1875C29.4167 16.0089 28.6131 15.8899 27.4821 15.8304C26.8274 15.8006 25.9048 15.7857 24.7143 15.7857H23.2857C22.0952 15.7857 21.1726 15.8006 20.5179 15.8304C19.4167 15.8899 18.6131 16.0089 18.1071 16.1875C17.1845 16.5446 16.5446 17.1845 16.1875 18.1071C16.0089 18.5833 15.8899 19.3869 15.8304 20.5179C15.8006 21.1726 15.7857 22.0952 15.7857 23.2857V24.7143C15.7857 25.9048 15.8006 26.8274 15.8304 27.4821C15.8899 28.5833 16.0089 29.3869 16.1875 29.8929C16.5744 30.8155 17.2143 31.4554 18.1071 31.8125C18.6131 31.9911 19.4167 32.1101 20.5179 32.1696C21.1726 32.1994 22.0952 32.2143 23.2857 32.2143H24.7143C25.9345 32.2143 26.8571 32.1994 27.4821 32.1696C28.6131 32.1101 29.4167 31.9911 29.8929 31.8125Z" fill="#F1F1F1"/>
<path fill-rule="evenodd" clip-rule="evenodd" d="M44 24C44 35.0457 35.0457 44 24 44C12.9543 44 4 35.0457 4 24C4 12.9543 12.9543 4 24 4C35.0457 4 44 12.9543 44 24ZM40 24C40 32.8366 32.8366 40 24 40C15.1634 40 8 32.8366 8 24C8 15.1634 15.1634 8 24 8C32.8366 8 40 15.1634 40 24Z" fill="#F1F1F1"/>
</svg>
