<svg width="100%" height="100%" viewBox="0 0 90 24" fill="none" xmlns="http://www.w3.org/2000/svg">
<path fill-rule="evenodd" clip-rule="evenodd" d="M24.1611 3.21986V11.7165H27.4641C28.4289 11.7087 29.172 11.4948 29.6933 11.0746C30.2146 10.6544 30.4753 10.0359 30.4753 9.21888C30.4753 8.74036 30.3488 8.33576 30.0959 8.00507C29.847 7.67439 29.5046 7.45458 29.0689 7.34565C29.4501 7.19781 29.7478 6.96633 29.9617 6.65121C30.1757 6.33219 30.2827 5.96455 30.2827 5.54827C30.2827 4.78575 30.0162 4.20803 29.4832 3.8151C28.9502 3.41827 28.1682 3.21986 27.1373 3.21986H24.1611ZM25.9118 10.3101V8.01674H27.5166C28.3219 8.02841 28.7246 8.42329 28.7246 9.20137C28.7246 9.54762 28.6079 9.81995 28.3744 10.0184C28.1449 10.2129 27.8239 10.3101 27.4116 10.3101H25.9118ZM27.2073 6.77959H25.9118V4.63792H27.1373C27.6197 4.63792 27.9718 4.72351 28.1935 4.89469C28.4192 5.06197 28.532 5.33819 28.532 5.72334C28.532 6.41195 28.0904 6.76403 27.2073 6.77959Z" fill="#3E3E3E"/>
<path d="M38.225 8.81622V3.21986H36.4684V8.87458C36.4529 9.90943 35.953 10.4269 34.9687 10.4269C34.4979 10.4269 34.1284 10.3004 33.8599 10.0475C33.5954 9.79077 33.4631 9.38422 33.4631 8.82789V3.21986H31.7124V8.88041C31.7241 9.79855 32.0217 10.5202 32.6053 11.0454C33.1888 11.5706 33.9766 11.8332 34.9687 11.8332C35.9763 11.8332 36.77 11.5629 37.3496 11.0221C37.9332 10.4813 38.225 9.74603 38.225 8.81622Z" fill="#3E3E3E"/>
<path d="M45.1285 10.3101H41.4112V3.21986H39.6605V11.7165H45.1285V10.3101Z" fill="#3E3E3E"/>
<path d="M51.606 10.3101H47.8888V3.21986H46.1381V11.7165H51.606V10.3101Z" fill="#3E3E3E"/>
<path fill-rule="evenodd" clip-rule="evenodd" d="M52.6156 3.21986V11.7165H55.2475C55.9905 11.7126 56.6577 11.5415 57.2491 11.203C57.8404 10.8645 58.2976 10.3879 58.6205 9.77326C58.9473 9.15858 59.1107 8.45636 59.1107 7.66661V7.27562C59.1107 6.48586 58.9453 5.7817 58.6146 5.16312C58.2839 4.54066 57.8229 4.06214 57.2316 3.72756C56.6441 3.38909 55.9769 3.21986 55.23 3.21986H52.6156ZM54.3663 10.3101V4.63792H55.23C55.9186 4.63792 56.4418 4.86162 56.7998 5.30901C57.1577 5.75252 57.3366 6.40611 57.3366 7.26978V7.71913C57.3288 8.55167 57.1441 9.19165 56.7822 9.63905C56.4204 10.0864 55.8972 10.3101 55.2125 10.3101H54.3663Z" fill="#3E3E3E"/>
<path fill-rule="evenodd" clip-rule="evenodd" d="M66.9246 9.8608C67.2202 9.23055 67.3681 8.49721 67.3681 7.66077V7.28145C67.3681 6.44891 67.2163 5.71556 66.9129 5.08143C66.6133 4.4434 66.1873 3.95515 65.6349 3.61668C65.0863 3.27433 64.458 3.10315 63.75 3.10315C63.0419 3.10315 62.4117 3.27433 61.8592 3.61668C61.3107 3.95515 60.8847 4.4434 60.5812 5.08143C60.2817 5.71556 60.1319 6.45085 60.1319 7.28729V7.70745C60.1358 8.52444 60.2895 9.24806 60.5929 9.87831C60.8964 10.5047 61.3243 10.9871 61.8767 11.3255C62.4292 11.664 63.0575 11.8332 63.7616 11.8332C64.4736 11.8332 65.1038 11.6621 65.6524 11.3197C66.2048 10.9773 66.6289 10.491 66.9246 9.8608ZM65.1155 5.24482C65.4345 5.70778 65.594 6.38471 65.594 7.27562V7.68995C65.5901 8.57307 65.4306 9.24611 65.1155 9.70907C64.8004 10.1681 64.3491 10.3977 63.7616 10.3977C63.1625 10.3977 62.7035 10.1584 62.3844 9.67989C62.0654 9.20137 61.9059 8.52833 61.9059 7.66077V7.24644C61.9098 6.36332 62.0713 5.69417 62.3903 5.23899C62.7093 4.77992 63.1625 4.55038 63.75 4.55038C64.3413 4.55038 64.7965 4.78186 65.1155 5.24482Z" fill="#3E3E3E"/>
<path d="M74.6392 10.3101H70.3559L74.5459 4.22359V3.21986H68.1734V4.63792H72.3692L68.1675 10.6895V11.7165H74.6392V10.3101Z" fill="#3E3E3E"/>
<path d="M77.4987 8.03425H80.86V6.66288H77.4987V4.63792H81.4319V3.21986H75.748V11.7165H81.4436V10.3101H77.4987V8.03425Z" fill="#3E3E3E"/>
<path fill-rule="evenodd" clip-rule="evenodd" d="M84.2213 8.60614H85.6161L87.2092 11.7165H89.0882V11.6348L87.25 8.16263C87.7597 7.9331 88.139 7.62576 88.388 7.2406C88.6408 6.85156 88.7673 6.36721 88.7673 5.78754C88.7673 4.97055 88.495 4.33836 87.9503 3.89096C87.4056 3.44356 86.6315 3.21986 85.6277 3.21986H82.4707V11.7165H84.2213V8.60614ZM85.6336 7.18808H84.2213V4.63792H85.6277C86.0985 4.63792 86.4467 4.75269 86.6723 4.98222C86.9018 5.21175 87.0166 5.52688 87.0166 5.92759C87.0166 6.32052 86.896 6.62981 86.6548 6.85545C86.4136 7.07721 86.0732 7.18808 85.6336 7.18808Z" fill="#3E3E3E"/>
<path d="M27.928 21.5403C28.3278 21.3915 28.621 21.1843 28.8077 20.9188V18.6517H26.5581V19.1069H28.2694V20.7525C28.1644 20.8809 28.0039 20.9932 27.788 21.0895C27.4553 21.2354 27.057 21.3083 26.5931 21.3083C26.1934 21.3083 25.8389 21.2062 25.5296 21.002C25.2232 20.7977 24.9869 20.5103 24.8205 20.1398C24.6571 19.7663 24.5754 19.3374 24.5754 18.853V18.1002C24.5754 17.3299 24.7491 16.7332 25.0963 16.3101C25.4435 15.8871 25.9147 15.6755 26.51 15.6755C26.9972 15.6755 27.3911 15.7966 27.6917 16.0388C27.9951 16.278 28.1862 16.6311 28.265 17.0979H28.8034C28.7275 16.5115 28.4897 16.0519 28.0899 15.7193C27.6902 15.3837 27.1621 15.216 26.5056 15.216C25.7528 15.216 25.1532 15.4727 24.7067 15.9863C24.2603 16.4969 24.0371 17.1942 24.0371 18.0783V18.8836C24.04 19.4497 24.148 19.9516 24.361 20.3892C24.574 20.8269 24.8745 21.1654 25.2626 21.4046C25.6507 21.6439 26.0942 21.7635 26.5931 21.7635C27.0862 21.7635 27.5312 21.6891 27.928 21.5403Z" fill="#3E3E3E"/>
<path fill-rule="evenodd" clip-rule="evenodd" d="M39.9425 19.0237H41.7938L43.3344 21.676H43.9078V21.6191L42.3146 18.9099C42.7173 18.7903 43.0383 18.5744 43.2775 18.2621C43.5168 17.9499 43.6364 17.5896 43.6364 17.1811C43.6364 16.5888 43.4453 16.1278 43.0631 15.7981C42.6808 15.4683 42.1498 15.3035 41.4699 15.3035H39.3998V21.676H39.9425V19.0237ZM41.5925 18.5641H39.9425V15.763H41.4612C41.9776 15.763 42.3788 15.8871 42.6648 16.1351C42.9507 16.3831 43.0937 16.7318 43.0937 17.1811C43.0937 17.5896 42.9566 17.9222 42.6823 18.179C42.408 18.4358 42.0448 18.5641 41.5925 18.5641Z" fill="#3E3E3E"/>
<path fill-rule="evenodd" clip-rule="evenodd" d="M58.5833 20.3805C58.7875 19.937 58.8896 19.422 58.8896 18.8355V18.0739C58.8809 17.505 58.7744 17.0046 58.5701 16.5727C58.3659 16.1409 58.0756 15.8068 57.6992 15.5705C57.3257 15.3341 56.8939 15.216 56.4037 15.216C55.9135 15.216 55.4802 15.337 55.1038 15.5792C54.7274 15.8185 54.4356 16.1628 54.2284 16.6121C54.0242 17.0586 53.9221 17.5721 53.9221 18.1527V18.8092C53.9221 19.7138 54.1511 20.433 54.6092 20.967C55.0673 21.498 55.6684 21.7635 56.4124 21.7635C56.9055 21.7635 57.3403 21.6439 57.7167 21.4046C58.0931 21.1654 58.382 20.824 58.5833 20.3805ZM57.8305 16.3408C58.1777 16.7755 58.3513 17.3766 58.3513 18.144V18.818C58.3513 19.597 58.1806 20.2054 57.8392 20.6431C57.4979 21.0778 57.0222 21.2952 56.4124 21.2952C55.8114 21.2952 55.3358 21.0749 54.9856 20.6343C54.6355 20.1908 54.4604 19.5912 54.4604 18.8355V18.1702C54.4604 17.3883 54.6355 16.7799 54.9856 16.3451C55.3387 15.9075 55.8114 15.6886 56.4037 15.6886C57.0077 15.6886 57.4833 15.906 57.8305 16.3408Z" fill="#3E3E3E"/>
<path d="M73.714 19.6539V15.3035H73.1712V19.6189C73.1712 20.15 73.0181 20.5643 72.7117 20.8619C72.4082 21.1595 71.9939 21.3083 71.4687 21.3083C70.9435 21.3083 70.5277 21.161 70.2213 20.8663C69.915 20.5687 69.7618 20.1514 69.7618 19.6146V15.3035H69.2278V19.6933C69.2424 20.3411 69.451 20.8488 69.8537 21.2164C70.2593 21.5812 70.7976 21.7635 71.4687 21.7635C71.9093 21.7635 72.2988 21.6789 72.6373 21.5097C72.9787 21.3375 73.2427 21.0924 73.4295 20.7744C73.6162 20.4563 73.711 20.0829 73.714 19.6539Z" fill="#3E3E3E"/>
<path fill-rule="evenodd" clip-rule="evenodd" d="M84.8312 21.676V19.0806H86.4506C87.1509 19.0806 87.6848 18.9187 88.0525 18.5948C88.423 18.268 88.6083 17.8055 88.6083 17.2074C88.6083 16.615 88.4157 16.1497 88.0306 15.8112C87.6483 15.4727 87.126 15.3035 86.4637 15.3035H84.2929V21.676H84.8312ZM86.4637 18.6254H84.8312V15.763H86.4987C87.0006 15.7689 87.3872 15.9031 87.6586 16.1657C87.9328 16.4254 88.07 16.7755 88.07 17.2161C88.07 17.6596 87.9328 18.0054 87.6586 18.2534C87.3843 18.5014 86.986 18.6254 86.4637 18.6254Z" fill="#3E3E3E"/>
<path d="M14.721 17.5008C14.7376 17.575 14.8475 17.5701 14.8475 17.4941C14.8475 16.179 14.3632 14.9779 13.5644 14.0617C14.1644 13.8199 14.7486 13.5229 15.3142 13.1748C15.4953 13.0634 15.4137 12.7953 15.2012 12.7953H11.9047C11.2306 12.4709 10.4758 12.2893 9.67887 12.2893C8.88192 12.2893 8.1271 12.4709 7.453 12.7953H4.22882C4.01627 12.7953 3.93472 13.0634 4.11574 13.1748C4.66467 13.5126 5.23102 13.8022 5.81229 14.04C5.00219 14.9589 4.5102 16.1687 4.5102 17.4941C4.5102 17.5701 4.62016 17.575 4.63677 17.5008C5.15659 15.1796 7.21667 13.4459 9.67887 13.4459C12.1411 13.4459 14.2012 15.1796 14.721 17.5008Z" fill="#3E3E3E"/>
<path d="M11.2363 14.8555C11.4682 14.4363 11.0616 14.0242 10.5825 14.0242H8.91987C8.44078 14.0242 8.03421 14.4363 8.26612 14.8555C8.55631 15.38 9.1126 15.7349 9.7512 15.7349C10.3898 15.7349 10.9461 15.38 11.2363 14.8555Z" fill="#3E3E3E"/>
<path d="M14.1247 20.2411C14.1247 20.3608 14.0276 20.4579 13.9078 20.4579C13.788 20.4579 13.6909 20.3608 13.6909 20.2411C13.6909 20.1213 13.788 20.0242 13.9078 20.0242C14.0276 20.0242 14.1247 20.1213 14.1247 20.2411Z" fill="#3E3E3E"/>
<path d="M14.8475 19.735C14.9673 19.735 15.0644 19.6379 15.0644 19.5182C15.0644 19.3984 14.9673 19.3013 14.8475 19.3013C14.7278 19.3013 14.6307 19.3984 14.6307 19.5182C14.6307 19.6379 14.7278 19.735 14.8475 19.735Z" fill="#3E3E3E"/>
<path d="M15.0644 20.6748C15.0644 20.7946 14.9673 20.8917 14.8475 20.8917C14.7278 20.8917 14.6307 20.7946 14.6307 20.6748C14.6307 20.555 14.7278 20.4579 14.8475 20.4579C14.9673 20.4579 15.0644 20.555 15.0644 20.6748Z" fill="#3E3E3E"/>
<path d="M13.9078 21.6145C14.0276 21.6145 14.1247 21.5175 14.1247 21.3977C14.1247 21.2779 14.0276 21.1808 13.9078 21.1808C13.788 21.1808 13.6909 21.2779 13.6909 21.3977C13.6909 21.5175 13.788 21.6145 13.9078 21.6145Z" fill="#3E3E3E"/>
<path d="M14.1247 19.0844C14.1247 19.2042 14.0276 19.3013 13.9078 19.3013C13.788 19.3013 13.6909 19.2042 13.6909 19.0844C13.6909 18.9647 13.788 18.8676 13.9078 18.8676C14.0276 18.8676 14.1247 18.9647 14.1247 19.0844Z" fill="#3E3E3E"/>
<path d="M5.44996 20.4579C5.33019 20.4579 5.2331 20.3608 5.2331 20.2411C5.2331 20.1213 5.33019 20.0242 5.44996 20.0242C5.56974 20.0242 5.66683 20.1213 5.66683 20.2411C5.66683 20.3608 5.56974 20.4579 5.44996 20.4579Z" fill="#3E3E3E"/>
<path d="M4.29334 19.5182C4.29334 19.6379 4.39043 19.735 4.5102 19.735C4.62998 19.735 4.72707 19.6379 4.72707 19.5182C4.72707 19.3984 4.62998 19.3013 4.5102 19.3013C4.39043 19.3013 4.29334 19.3984 4.29334 19.5182Z" fill="#3E3E3E"/>
<path d="M4.5102 20.8917C4.39043 20.8917 4.29334 20.7946 4.29334 20.6748C4.29334 20.555 4.39043 20.4579 4.5102 20.4579C4.62998 20.4579 4.72707 20.555 4.72707 20.6748C4.72707 20.7946 4.62998 20.8917 4.5102 20.8917Z" fill="#3E3E3E"/>
<path d="M5.2331 21.3977C5.2331 21.5175 5.33019 21.6145 5.44996 21.6145C5.56974 21.6145 5.66683 21.5175 5.66683 21.3977C5.66683 21.2779 5.56974 21.1808 5.44996 21.1808C5.33019 21.1808 5.2331 21.2779 5.2331 21.3977Z" fill="#3E3E3E"/>
<path d="M5.44996 19.3013C5.33019 19.3013 5.2331 19.2042 5.2331 19.0844C5.2331 18.9647 5.33019 18.8676 5.44996 18.8676C5.56974 18.8676 5.66683 18.9647 5.66683 19.0844C5.66683 19.2042 5.56974 19.3013 5.44996 19.3013Z" fill="#3E3E3E"/>
<path fill-rule="evenodd" clip-rule="evenodd" d="M11.8837 22.8347C11.1726 23.132 10.4062 23.2837 9.62959 23.277C8.88613 23.2706 8.1545 23.1191 7.47406 22.8347V24.0001H6.75805C6.18953 24.0001 5.48457 23.9556 4.83572 23.7909C4.2059 23.631 3.51398 23.329 3.12157 22.7247L3.10382 22.6974L0.656299 17.7987C0.00561601 16.7732 0.011772 15.5069 0.674766 14.486L1.02345 13.949L0.0640706 11.0116C-0.163919 10.3135 0.236465 9.59343 0.949007 9.42004L4.59064 8.53391C4.83335 8.47485 5.08065 8.49997 5.2999 8.59039C5.75525 8.40953 6.25141 8.31335 6.75805 8.31335H6.82092L9.71502 8.95012L12.6091 8.31335H12.672C13.1582 8.31335 13.6348 8.40193 14.0749 8.56894C14.2772 8.48462 14.5059 8.4608 14.7307 8.5155L18.472 9.42589C19.1679 9.59522 19.5692 10.2878 19.3698 10.9755L18.4767 14.0571L18.7553 14.486C19.4163 15.5038 19.4244 16.7656 18.7796 17.7894L16.5488 22.6886L16.5253 22.7247C16.1225 23.345 15.3539 23.6398 14.6913 23.7937C13.9944 23.9555 13.2404 24.0001 12.672 24.0001H11.8837V22.8347ZM6.69802 9.4706C5.80794 9.48914 5.01971 9.91883 4.60177 10.5624L1.6448 15.1159C1.22438 15.7633 1.22438 16.5501 1.6448 17.1975L1.66255 17.2249L2.99817 19.8981C2.94659 19.3098 2.91985 18.7073 2.91985 18.0941C2.91985 17.9641 3.09828 17.9572 3.11645 18.0859C3.31936 19.523 3.62848 20.8682 4.07782 22.059L4.10715 22.1177C4.26639 22.3427 4.60057 22.5379 5.12031 22.6698C5.49717 22.7655 5.91637 22.8138 6.31743 22.8331V18.5061C6.31743 17.5479 7.09419 16.7712 8.05237 16.7712H11.3054C12.2636 16.7712 13.0403 17.5479 13.0403 18.5061V22.8366C13.4839 22.82 13.9805 22.7714 14.4296 22.667C14.9033 22.557 15.2323 22.4059 15.4229 22.2419C15.8948 21.0104 16.2491 19.427 16.4533 18.0847C16.4717 17.964 16.6548 17.9719 16.6548 18.0941C16.6548 18.6811 16.6303 19.2583 16.5829 19.8226L17.7618 17.2337L17.7852 17.1975C18.2057 16.5501 18.2057 15.7633 17.7852 15.1159L14.8283 10.5624C14.4103 9.91883 13.6221 9.48914 12.732 9.4706L9.71502 10.1344L6.69802 9.4706ZM7.47406 21.5519C8.13696 21.9178 8.88075 22.1139 9.63958 22.1204C10.4247 22.1272 11.1972 21.9309 11.8837 21.552V18.5061C11.8837 18.1867 11.6248 17.9278 11.3054 17.9278H8.05237C7.73298 17.9278 7.47406 18.1867 7.47406 18.5061V21.5519ZM3.61342 9.96069L1.27632 10.5294C1.19715 10.5487 1.15266 10.6287 1.178 10.7062L1.83097 12.7055L3.61342 9.96069ZM17.6449 12.7761L15.8228 9.97024L18.1447 10.5352C18.222 10.554 18.2666 10.631 18.2444 10.7074L17.6449 12.7761Z" fill="#3E3E3E"/>
<path d="M11.9662 0.334712C11.9962 0.159754 11.8611 0 11.6832 0H7.86545C7.68754 0 7.55245 0.159754 7.58241 0.334712L8.14747 3.6353C8.18835 3.87413 7.97206 4.09346 7.66437 4.1252C7.35668 4.15693 7.0741 3.98905 7.03322 3.75023L6.66071 1.57437C6.63074 1.39927 6.44946 1.29311 6.28412 1.35902C4.12503 2.21973 2.66745 3.85414 2.66745 5.72878C2.66745 5.91276 2.68149 6.09444 2.70886 6.2733H2.12808C1.60807 6.2733 1.18652 6.60049 1.18652 7.00411C1.18652 7.40773 1.60807 7.73493 2.12808 7.73493H5.62006C6.31208 7.73493 7.00235 7.80445 7.68047 7.94243C9.00106 8.21114 10.3615 8.21894 11.685 7.96539L11.8469 7.93437C12.5395 7.80171 13.243 7.73493 13.9481 7.73493H17.3775C17.8975 7.73493 18.319 7.40773 18.319 7.00411C18.319 6.60049 17.8975 6.2733 17.3775 6.2733H16.8416C16.869 6.09444 16.883 5.91276 16.883 5.72878C16.883 3.85364 15.4246 2.21885 13.2646 1.35833C13.0993 1.29247 12.918 1.39862 12.8881 1.5737L12.5154 3.75023C12.4746 3.98905 12.192 4.15693 11.8843 4.12519C11.5766 4.09346 11.3603 3.87413 11.4012 3.6353L11.9662 0.334712Z" fill="#FC7F0C"/>
</svg>
