<svg width="24" height="24" viewBox="0 0 24 24" fill="none" xmlns="http://www.w3.org/2000/svg">
<path fill-rule="evenodd" clip-rule="evenodd" d="M1 5.66663C1 5.11434 1.44772 4.66663 2 4.66663H22C22.5523 4.66663 23 5.11434 23 5.66663C23 6.21891 22.5523 6.66663 22 6.66663H2C1.44772 6.66663 1 6.21891 1 5.66663ZM1 11.6666C1 11.1143 1.44772 10.6666 2 10.6666H22C22.5523 10.6666 23 11.1143 23 11.6666C23 12.2189 22.5523 12.6666 22 12.6666H2C1.44772 12.6666 1 12.2189 1 11.6666ZM2 16.6666C1.44772 16.6666 1 17.1143 1 17.6666C1 18.2189 1.44772 18.6666 2 18.6666H22C22.5523 18.6666 23 18.2189 23 17.6666C23 17.1143 22.5523 16.6666 22 16.6666H2Z" fill="#3E3E3E"/>
</svg>
