<svg width="100%" height="100%" viewBox="0 0 24 24" fill="none" xmlns="http://www.w3.org/2000/svg">
<path d="M14.9772 15.7675L16.5172 14.2275C16.7247 14.0227 16.9871 13.8825 17.2727 13.8239C17.5582 13.7653 17.8547 13.7909 18.126 13.8975L20.0029 14.6469C20.277 14.7582 20.5121 14.9482 20.6785 15.1928C20.8449 15.4375 20.9352 15.726 20.9379 16.0219V19.4594C20.9363 19.6607 20.894 19.8596 20.8135 20.0441C20.733 20.2286 20.616 20.3949 20.4696 20.533C20.3231 20.6711 20.1502 20.7781 19.9613 20.8476C19.7724 20.9172 19.5714 20.9477 19.3704 20.9375C6.21849 20.1194 3.56474 8.9819 3.06287 4.7194C3.03957 4.51008 3.06086 4.2982 3.12532 4.0977C3.18979 3.8972 3.29599 3.71262 3.43691 3.55611C3.57784 3.3996 3.75031 3.27469 3.94297 3.18962C4.13564 3.10455 4.34413 3.06124 4.55474 3.06253H7.87537C8.17168 3.06341 8.46096 3.15291 8.706 3.31954C8.95103 3.48616 9.14062 3.72228 9.25036 3.99753L9.99974 5.8744C10.1099 6.14464 10.138 6.44134 10.0806 6.72746C10.0231 7.01358 9.88259 7.27642 9.67661 7.48315L8.13662 9.02315C8.13662 9.02315 9.02349 15.025 14.9772 15.7675Z" fill="#767676"/>
</svg>
