<svg width="113" height="16" viewBox="0 0 113 16" fill="#F7F0E9" xmlns="http://www.w3.org/2000/svg">
<path d="M93.6958 16H89.4583V2.82353C89.4583 1.26413 90.7231 0 92.2833 0H93.6958V16Z" fill="#F7F0E9"/>
<path d="M4.2375 0H0V16H4.2375V0Z" fill="#F7F0E9"/>
<path d="M5.17917 9.88235L8.00417 16H12.2417L9.41667 9.88235C10.9769 9.88235 12.2417 8.61822 12.2417 7.05882V2.82353C12.2417 1.26413 10.9769 0 9.41667 0H5.17917V3.76471H8.00417C8.26418 3.76471 8.475 3.97539 8.475 4.23529V6.11765C8.475 6.37756 8.26418 6.58824 8.00417 6.58824H5.17917V9.88235Z" fill="#F7F0E9"/>
<path d="M13.6542 0H17.4208V12.2353H20.7167V16H16.4792C14.919 16 13.6542 14.7359 13.6542 13.1765V0Z" fill="#F7F0E9"/>
<path d="M21.6583 0H25.8958V13.1765C25.8958 14.7359 24.631 16 23.0708 16H21.6583V0Z" fill="#F7F0E9"/>
<path d="M47.5542 16H43.3167V0H44.7292C46.2894 0 47.5542 1.26413 47.5542 2.82353V16Z" fill="#F7F0E9"/>
<path d="M27.3083 16H31.5458V4.23529H35.3125V16H39.55V4.23529H42.375V0H27.3083V16Z" fill="#F7F0E9"/>
<path d="M97.9333 7.52941V11.7647H94.6375V7.52941H97.9333Z" fill="#F7F0E9"/>
<path d="M99.8167 4.23529V0H94.6375V4.23529H99.8167Z" fill="#F7F0E9"/>
<path d="M65.9167 0H61.6792L69.9188 16H74.1562L70.0365 8L74.1562 0H69.9188L67.9177 3.88571L65.9167 0Z" fill="#F7F0E9"/>
<path d="M52.7333 0H56.9708L61.2083 16H56.9708L54.8521 8L53.9797 11.2941H54.8393L55.9045 15.5294H52.8579L52.7333 16H48.4958L52.7333 0Z" fill="#F7F0E9"/>
<path d="M109.233 5.17647H104.996V16H109.233V5.17647Z" fill="#F7F0E9"/>
<path d="M100.758 4.23529V0H113V4.23529H100.758Z" fill="#F7F0E9"/>
<path d="M65.3282 8.91415L61.6792 16H65.9167L67.4469 13.0284L65.3282 8.91415Z" fill="#F7F0E9"/>
<path d="M78.1583 0H79.1V16H78.1583C76.5981 16 75.3333 14.7359 75.3333 13.1765V2.82353C75.3333 1.26413 76.5981 0 78.1583 0Z" fill="#F7F0E9"/>
<path d="M83.8083 12.3429H80.0417V16H84.75C86.3102 16 87.575 14.7359 87.575 13.1765V2.82353C87.575 1.26413 86.3102 0 84.75 0H80.0417V3.65714H83.8083V12.3429Z" fill="#F7F0E9"/>
</svg>
