<svg width="100%" height="100%" viewBox="0 0 24 24" fill="none" xmlns="http://www.w3.org/2000/svg">
<path d="M11.9941 2C10.0163 2 8.08293 2.58649 6.43844 3.6853C4.79395 4.78412 3.51223 6.3459 2.75535 8.17316C1.99847 10.0004 1.80044 12.0111 2.18629 13.9509C2.57214 15.8907 3.52455 17.6725 4.92308 19.0711C6.3216 20.4696 8.10343 21.422 10.0432 21.8079C11.9831 22.1937 13.9937 21.9957 15.821 21.2388C17.6482 20.4819 19.21 19.2002 20.3088 17.5557C21.4077 15.9112 21.9941 13.9778 21.9941 12C21.9941 10.6868 21.7355 9.38642 21.2329 8.17316C20.7304 6.95991 19.9938 5.85752 19.0652 4.92893C18.1366 4.00035 17.0342 3.26375 15.821 2.7612C14.6077 2.25866 13.3074 2 11.9941 2ZM15.1741 17.152C15.1368 17.2454 15.0799 17.3298 15.0073 17.3994C14.9347 17.469 14.848 17.5223 14.7531 17.5556C14.6582 17.589 14.5572 17.6016 14.457 17.5927C14.3568 17.5838 14.2597 17.5536 14.1721 17.504L11.4571 15.394L9.71514 17.002C9.67471 17.0319 9.62742 17.0511 9.57762 17.0579C9.52783 17.0647 9.47711 17.0589 9.43014 17.041L9.76414 14.052L9.77414 14.061L9.78115 14.002C9.78115 14.002 14.6661 9.554 14.8651 9.365C15.0671 9.176 15.0001 9.135 15.0001 9.135C15.0121 8.905 14.6391 9.135 14.6391 9.135L8.16614 13.299L5.47115 12.381C5.47115 12.381 5.05714 12.233 5.01815 11.906C4.97714 11.582 5.48415 11.406 5.48415 11.406L16.2011 7.148C16.2011 7.148 17.0821 6.756 17.0821 7.406L15.1741 17.152Z" fill="#767676"/>
</svg>
