<svg width="48" height="48" viewBox="0 0 48 48" fill="none" xmlns="http://www.w3.org/2000/svg">
<path d="M24.3927 31.2748C24.3927 31.2748 24.8439 31.2256 25.075 30.982C25.2865 30.7587 25.2792 30.3374 25.2792 30.3374C25.2792 30.3374 25.2511 28.3702 26.1816 28.0798C26.7358 27.9071 27.3851 28.6379 28.0879 29.4289C28.5481 29.9468 29.0313 30.4906 29.5258 30.8235C30.4698 31.4597 31.1863 31.3204 31.1863 31.3204L34.5256 31.2748C34.5256 31.2748 36.2717 31.1692 35.4439 29.8213C35.4387 29.8129 35.4314 29.7999 35.4215 29.7822C35.3027 29.5696 34.8078 28.6844 32.9617 27.0019L32.904 26.9494C32.0573 26.1786 31.6155 25.7765 31.569 25.3328C31.5183 24.8487 31.9383 24.3153 32.8166 23.1997C33.0645 22.8848 33.3491 22.5233 33.6697 22.1037C35.2055 20.0945 35.8193 18.8679 35.6273 18.3433C35.4452 17.8416 34.3153 17.9749 34.3153 17.9749L30.5566 17.9977C30.5566 17.9977 30.2778 17.9605 30.0712 18.0817C29.8694 18.2005 29.7386 18.4778 29.7386 18.4778C29.7386 18.4778 29.1443 20.0321 28.3507 21.3548C26.6768 24.1441 26.008 24.2918 25.7341 24.1189C25.2 23.7798 25.2254 22.8688 25.2475 22.0732C25.2518 21.9198 25.256 21.7707 25.256 21.6308C25.256 21.0083 25.2781 20.4693 25.2972 20.0049C25.3611 18.452 25.3907 17.7325 24.4428 17.508C24.0344 17.4108 23.7336 17.3471 22.6882 17.3363C21.3468 17.3231 20.2121 17.3411 19.569 17.6496C19.141 17.8548 18.8108 18.3133 19.0126 18.3397C19.2608 18.3721 19.8233 18.4886 20.1216 18.8871C20.5068 19.402 20.4934 20.5566 20.4934 20.5566C20.4934 20.5566 20.7147 23.7397 19.9761 24.1345C19.4699 24.4058 18.7754 23.8525 17.2824 21.3212C16.5182 20.0249 15.941 18.5918 15.941 18.5918C15.941 18.5918 15.8298 18.3241 15.6305 18.1801C15.3896 18.0061 15.0533 17.9521 15.0533 17.9521L11.4817 17.9749C11.4817 17.9749 10.9449 17.9893 10.748 18.2185C10.5732 18.4214 10.7346 18.8426 10.7346 18.8426C10.7346 18.8426 13.531 25.2652 16.6979 28.5022C19.602 31.4693 22.8985 31.2748 22.8985 31.2748H24.3927Z" fill="#F1F1F1"/>
<path fill-rule="evenodd" clip-rule="evenodd" d="M24 44C35.0457 44 44 35.0457 44 24C44 12.9543 35.0457 4 24 4C12.9543 4 4 12.9543 4 24C4 35.0457 12.9543 44 24 44ZM40 24C40 32.8366 32.8366 40 24 40C15.1634 40 8 32.8366 8 24C8 15.1634 15.1634 8 24 8C32.8366 8 40 15.1634 40 24Z" fill="#F1F1F1"/>
</svg>
