<svg width="36" height="36" viewBox="0 0 36 36" fill="none" xmlns="http://www.w3.org/2000/svg">
<path d="M3.00602 33L5.03402 25.548C3.69773 23.2573 2.99566 20.652 3.00002 18C3.00002 9.7155 9.71552 3 18 3C26.2845 3 33 9.7155 33 18C33 26.2845 26.2845 33 18 33C15.3492 33.0043 12.745 32.3028 10.455 30.9675L3.00602 33ZM12.5865 10.962C12.3928 10.974 12.2035 11.025 12.03 11.112C11.8673 11.2041 11.7188 11.3193 11.589 11.454C11.409 11.6235 11.307 11.7705 11.1975 11.913C10.6431 12.6345 10.3449 13.5201 10.35 14.43C10.353 15.165 10.545 15.8805 10.845 16.5495C11.4585 17.9025 12.468 19.335 13.8015 20.6625C14.1225 20.982 14.436 21.303 14.7735 21.6015C16.4286 23.0587 18.4009 24.1096 20.5335 24.6705L21.387 24.801C21.6645 24.816 21.942 24.795 22.221 24.7815C22.6579 24.759 23.0844 24.6407 23.4705 24.435C23.667 24.3338 23.8587 24.2237 24.045 24.105C24.045 24.105 24.1095 24.063 24.2325 23.97C24.435 23.82 24.5595 23.7135 24.7275 23.538C24.852 23.409 24.96 23.2575 25.0425 23.085C25.1595 22.8405 25.2765 22.374 25.3245 21.9855C25.3605 21.6885 25.35 21.5265 25.3455 21.426C25.3395 21.2655 25.206 21.099 25.0605 21.0285L24.1875 20.637C24.1875 20.637 22.8825 20.0685 22.086 19.7055C22.002 19.6689 21.912 19.648 21.8205 19.644C21.7179 19.6335 21.6142 19.645 21.5164 19.6779C21.4186 19.7107 21.329 19.7641 21.2535 19.8345V19.8315C21.246 19.8315 21.1455 19.917 20.061 21.231C19.9988 21.3146 19.913 21.3779 19.8147 21.4126C19.7164 21.4473 19.61 21.452 19.509 21.426C19.4113 21.3999 19.3155 21.3668 19.2225 21.327C19.0365 21.249 18.972 21.219 18.8445 21.1635L18.837 21.1605C17.9789 20.7858 17.1844 20.2798 16.482 19.6605C16.293 19.4955 16.1175 19.3155 15.9375 19.1415C15.3474 18.5764 14.8331 17.937 14.4075 17.2395L14.319 17.097C14.2555 17.0012 14.2041 16.898 14.166 16.7895C14.109 16.569 14.2575 16.392 14.2575 16.392C14.2575 16.392 14.622 15.993 14.7915 15.777C14.9327 15.5975 15.0643 15.4107 15.186 15.2175C15.363 14.9325 15.4185 14.64 15.3255 14.4135C14.9055 13.3875 14.4705 12.366 14.0235 11.352C13.935 11.151 13.6725 11.007 13.434 10.9785C13.353 10.9695 13.272 10.9605 13.191 10.9545C12.9896 10.9445 12.7877 10.9465 12.5865 10.9605V10.962Z" fill="#FC7F0C"/>
</svg>
